<?xml version="1.0" encoding="utf-8" ?>
<svg baseProfile="tiny" height="0" version="1.2" width="0" xmlns="http://www.w3.org/2000/svg" xmlns:ev="http://www.w3.org/2001/xml-events" xmlns:xlink="http://www.w3.org/1999/xlink"><defs /><g id="hendit"><path d="M 0.0 0.0 H 1133.859696201192 V 377.953232067064 H 0.0 ZM 0.0 366.61463510505206 H -377.953232067064 M -377.953232067064 377.953232067064 h -1133.859696201192 v -366.61463510505206 M -377.953232067064 11.33859696201192 L -377.953232067064 377.953232067064 M -1511.812928268256 366.61463510505206 L -1889.76616033532 366.61463510505206 M -1889.76616033532 11.33859696201192 L -1545.8287191542918 11.33859696201192 M -343.93744118102825 11.33859696201192 L 0.0 11.33859696201192 M 56.6929848100596 -377.953232067064 L 1077.1667113911324 -377.953232067064 " fill="none" stroke="red" /></g><g id="tall"><path d="M -19.356195762991735 8.017598800979815 A 11.33859696201192 11.33859696201192 0 0 0 0.0 0.0 V -377.953232067064 L 56.6929848100596 -377.953232067064 v -22.67719392402384 h -34.01579088603576 v -56.6929848100596 a 56.6929848100596 56.6929848100596 0 0 1 56.6929848100596 -56.6929848100596 H 1054.4895174671085 a 56.6929848100596 56.6929848100596 0 0 1 56.6929848100596 56.6929848100596 v 56.6929848100596 h -34.01579088603576 L 1077.1667113911324 -377.953232067064 H 1133.859696201192 V 0.0 l 71.81111409274216 68.03158177207152 v 241.89006852292096 l -71.81111409274216 68.03158177207152 v 283.464924050298 h -215.43334227822646 a 68.03158177207152 68.03158177207152 0 0 1 -68.03158177207152 -68.03158177207152 V 566.929848100596 H 283.464924050298 v 26.45672624469448 a 68.03158177207152 68.03158177207152 0 0 1 -68.03158177207152 68.03158177207152 H 0.0 L 0.0 366.61463510505206 l -188.976616033532 283.464924050298 V 593.3865743452905 a 68.03158177207152 68.03158177207152 0 0 1 -68.03158177207152 68.03158177207152 H -377.953232067064 L -377.953232067064 377.953232067064 l -283.464924050298 188.976616033532 V 593.3865743452905 a 68.03158177207152 68.03158177207152 0 0 1 -68.03158177207152 68.03158177207152 H -1160.3164224458865 a 68.03158177207152 68.03158177207152 0 0 1 -68.03158177207152 -68.03158177207152 V 566.929848100596 L -1511.812928268256 377.953232067064 V 661.418156117362 h -120.94503426146048 a 68.03158177207152 68.03158177207152 0 0 1 -68.03158177207152 -68.03158177207152 V 650.0795591553501 L -1889.76616033532 366.61463510505206 L -1889.76616033532 11.33859696201192 l 45.35438784804768 -34.01579088603576 V -343.59384733369455 H -1681.8918826984348 s 31.74807149363337 0.0 40.81894906324291 32.88193118983457 l 27.212632708828604 124.72456658213112 L -1545.8287191542918 -120.25784656679308 L -1545.8287191542918 11.33859696201192 L -343.93744118102825 11.33859696201192 V -120.25784656679308 L -275.9058594089567 -185.98734956172882 l 27.212632708828604 -124.72456658213112 s 9.070877569609538 -32.88193118983457 40.81894906324291 -32.88193118983457 H -45.35438784804768 V -22.67719392402384 Z" fill="none" stroke="blue" /></g></svg>