<?xml version="1.0" encoding="utf-8" ?>
<svg baseProfile="tiny" height="0" version="1.2" width="0" xmlns="http://www.w3.org/2000/svg" xmlns:ev="http://www.w3.org/2001/xml-events" xmlns:xlink="http://www.w3.org/1999/xlink"><defs /><g id="hendit"><path d="M 0.0 0.0 H 566.929848100596 V 566.929848100596 H 0.0 ZM 0.0 555.5912511385841 H -302.3625856536512 M -302.3625856536512 566.929848100596 h -566.929848100596 v -555.5912511385841 M -302.3625856536512 11.33859696201192 L -302.3625856536512 566.929848100596 M -869.2924337542472 555.5912511385841 L -1171.6550194078984 555.5912511385841 M -1171.6550194078984 11.33859696201192 L -903.3082246402829 11.33859696201192 M -268.34679476761545 11.33859696201192 L 0.0 11.33859696201192 M 37.7953232067064 -302.3625856536512 L 555.5912511385841 -302.3625856536512 " fill="none" stroke="red" /></g><g id="tall"><path d="M -19.356195762991735 8.017598800979815 A 11.33859696201192 11.33859696201192 0 0 0 0.0 0.0 V -302.3625856536512 L 37.7953232067064 -302.3625856536512 v -22.67719392402384 h -128.50409890280176 v -37.7953232067064 a 37.7953232067064 37.7953232067064 0 0 1 37.7953232067064 -37.7953232067064 h 445.98481383913554 a 37.7953232067064 37.7953232067064 0 0 1 37.7953232067064 37.7953232067064 v 37.7953232067064 h -128.50409890280176 v 22.67719392402384 L 566.929848100596 -302.3625856536512 v 302.3625856536512 l 71.81111409274216 68.03158177207152 v 430.8666845564529 l -71.81111409274216 68.03158177207152 v 226.7719392402384 h -73.70088025307749 a 68.03158177207152 68.03158177207152 0 0 1 -68.03158177207152 -68.03158177207152 V 718.1111409274216 H 141.732462025149 v 7.55906464134128 a 68.03158177207152 68.03158177207152 0 0 1 -68.03158177207152 68.03158177207152 H 0.0 L 0.0 555.5912511385841 l -151.1812928268256 141.732462025149 V 725.6702055687629 a 68.03158177207152 68.03158177207152 0 0 1 -68.03158177207152 68.03158177207152 H -302.3625856536512 L -302.3625856536512 566.929848100596 l -141.732462025149 151.1812928268256 V 725.6702055687629 a 68.03158177207152 68.03158177207152 0 0 1 -68.03158177207152 68.03158177207152 H -659.5283899570267 a 68.03158177207152 68.03158177207152 0 0 1 -68.03158177207152 -68.03158177207152 V 718.1111409274216 L -869.2924337542472 566.929848100596 V 793.7017873408344 h -83.14971105475408 a 68.03158177207152 68.03158177207152 0 0 1 -68.03158177207152 -68.03158177207152 V 697.323713163733 L -1171.6550194078984 555.5912511385841 L -1171.6550194078984 11.33859696201192 l 45.35438784804768 -34.01579088603576 V -171.79692366684728 H -1039.371388184426 s 31.74807149363337 0.0 40.81894906324291 32.88193118983457 l 27.212632708828604 62.36228329106556 L -903.3082246402829 -60.12892328339654 L -903.3082246402829 11.33859696201192 L -268.34679476761545 11.33859696201192 V -60.12892328339654 L -200.3152129955439 -76.55270918594714 l 27.212632708828604 -62.36228329106556 s 9.070877569609538 -32.88193118983457 40.81894906324291 -32.88193118983457 H -45.35438784804768 V -22.67719392402384 Z" fill="none" stroke="blue" /></g></svg>