<?xml version="1.0" encoding="utf-8" ?>
<svg baseProfile="tiny" height="0" version="1.2" width="0" xmlns="http://www.w3.org/2000/svg" xmlns:ev="http://www.w3.org/2001/xml-events" xmlns:xlink="http://www.w3.org/1999/xlink"><defs /><g id="hendit"><path d="m 28.062974448520034 -0.8503931651066677 v -140.88180101933796 m 0.0 -0.5669287767377784 h -28.062974448520034 m -0.5669287767377784 142.29912296118238 h -140.59833663096904 m -0.5669287767377784 0.0 v 1586.8336460890416 m 0.5669287767377784 0.0 h 140.59833663096904 m 0.5669287767377784 142.29912296118238 h 28.062974448520034 m 0.0 -0.5669287767377784 v -140.88180101933796 m 142.58258734955126 -0.5669287767377784 v -1587.4005748657796 m -142.29912296118238 0.0 h -28.34643883688892 v 1587.4005748657796 h 28.34643883688892 z" fill="none" stroke="red" /></g><g id="tall"><path d="m 28.062974448520034 -0.2834643883688892 v -0.2834643883688892 h 226.77151069511137 v -141.44872979607572 h -226.77151069511137 v -198.7085362465913 h -28.062974448520034 v 340.72419481940483 h -0.2834643883688892 v -226.77151069511137 h -141.1652654077068 v 226.77151069511137 h -198.7085362465913 v 1586.8336460890416 h 198.7085362465913 v 226.77151069511137 h 141.1652654077068 v -226.77151069511137 h 0.2834643883688892 v 340.72419481940483 h 28.062974448520034 v -198.7085362465913 h 226.77151069511137 v -141.44872979607572 h -226.77151069511137 v -0.2834643883688892 h 170.92902618644018 v -1587.4005748657796 z" fill="none" stroke="blue" /></g></svg>