<?xml version="1.0" encoding="utf-8" ?>
<svg baseProfile="tiny" height="0" version="1.2" width="0" xmlns="http://www.w3.org/2000/svg" xmlns:ev="http://www.w3.org/2001/xml-events" xmlns:xlink="http://www.w3.org/1999/xlink"><defs /><g id="hendit"><path d="M 0.0 0.0 H 340.15790886035757 V 340.15790886035757 H 0.0 ZM 0.0 330.709078058681 H -340.15790886035757 M -340.15790886035757 340.15790886035757 h -340.15790886035757 v -330.709078058681 M -340.15790886035757 9.4488308016766 L -340.15790886035757 340.15790886035757 M -680.3158177207151 330.709078058681 L -1020.4737265810728 330.709078058681 M -1020.4737265810728 9.4488308016766 L -708.662310125745 9.4488308016766 M -311.8114164553278 9.4488308016766 L 0.0 9.4488308016766 M 125.98441068902135 -340.15790886035757 L 214.17349817133626 -340.15790886035757 " fill="none" stroke="red" /></g><g id="tall"><path d="M -16.130163135826447 6.681332334149846 A 9.4488308016766 9.4488308016766 0 0 0 0.0 0.0 V -340.15790886035757 L 125.98441068902135 -340.15790886035757 v -18.8976616033532 h -107.08674908566815 v -37.7953232067064 a 37.7953232067064 37.7953232067064 0 0 1 37.7953232067064 -37.7953232067064 h 226.7719392402384 a 37.7953232067064 37.7953232067064 0 0 1 37.7953232067064 37.7953232067064 v 37.7953232067064 h -107.08674908566815 v 18.8976616033532 L 340.15790886035757 -340.15790886035757 v 340.15790886035757 l 37.7953232067064 56.6929848100596 v 226.7719392402384 l -37.7953232067064 56.6929848100596 v 255.1184316452682 h -28.3464924050298 a 56.6929848100596 56.6929848100596 0 0 1 -56.6929848100596 -56.6929848100596 V 510.2368632905364 H 85.03947721508939 v 28.3464924050298 a 56.6929848100596 56.6929848100596 0 0 1 -56.6929848100596 56.6929848100596 H 0.0 L 0.0 330.709078058681 l -170.07895443017878 85.03947721508939 V 538.5833556955662 a 56.6929848100596 56.6929848100596 0 0 1 -56.6929848100596 56.6929848100596 H -340.15790886035757 L -340.15790886035757 340.15790886035757 l -85.03947721508939 170.07895443017878 V 538.5833556955662 a 56.6929848100596 56.6929848100596 0 0 1 -56.6929848100596 56.6929848100596 H -538.5833556955662 a 56.6929848100596 56.6929848100596 0 0 1 -56.6929848100596 -56.6929848100596 V 510.2368632905364 L -680.3158177207151 340.15790886035757 V 595.2763405056257 h -113.3859696201192 a 56.6929848100596 56.6929848100596 0 0 1 -56.6929848100596 -56.6929848100596 V 415.7485552737704 L -1020.4737265810728 330.709078058681 L -1020.4737265810728 9.4488308016766 l 37.7953232067064 -28.3464924050298 V -103.07815420010836 H -822.0482797458642 s 26.45672624469448 0.0 34.01579088603576 27.40160932486214 l 22.67719392402384 37.417369974639335 L -708.662310125745 -36.077353970037926 L -708.662310125745 9.4488308016766 L -311.8114164553278 9.4488308016766 V -36.077353970037926 L -255.1184316452682 -38.259174900606894 l 22.67719392402384 -37.417369974639335 s 7.55906464134128 -27.40160932486214 34.01579088603576 -27.40160932486214 H -37.7953232067064 V -18.8976616033532 Z" fill="none" stroke="blue" /></g></svg>