<?xml version="1.0" encoding="utf-8" ?>
<svg baseProfile="tiny" height="0" version="1.2" width="0" xmlns="http://www.w3.org/2000/svg" xmlns:ev="http://www.w3.org/2001/xml-events" xmlns:xlink="http://www.w3.org/1999/xlink"><defs /><g id="hendit"><path d="M 0.0 0.0 H 377.953232067064 V 188.976616033532 H 0.0 ZM 0.0 183.30731755252603 H -264.5672624469448 M -264.5672624469448 188.976616033532 h -377.953232067064 v -183.30731755252603 M -264.5672624469448 5.66929848100596 L -264.5672624469448 188.976616033532 M -642.5204945140088 183.30731755252603 L -907.0877569609536 183.30731755252603 M -907.0877569609536 5.66929848100596 L -659.5283899570267 5.66929848100596 M -247.55936700392692 5.66929848100596 L 0.0 5.66929848100596 M 75.5906464134128 -264.5672624469448 L 302.3625856536512 -264.5672624469448 " fill="none" stroke="red" /></g><g id="tall"><path d="M -9.678097881495868 4.008799400489908 A 5.66929848100596 5.66929848100596 0 0 0 0.0 0.0 V -264.5672624469448 L 75.5906464134128 -264.5672624469448 v -11.33859696201192 h -64.25204945140088 v -37.7953232067064 a 37.7953232067064 37.7953232067064 0 0 1 37.7953232067064 -37.7953232067064 h 279.6853917296273 a 37.7953232067064 37.7953232067064 0 0 1 37.7953232067064 37.7953232067064 v 37.7953232067064 h -64.25204945140088 v 11.33859696201192 L 377.953232067064 -264.5672624469448 v 264.5672624469448 l 71.81111409274216 34.01579088603576 v 120.94503426146048 l -71.81111409274216 34.01579088603576 v 198.4254468352086 h -60.47251713073024 a 34.01579088603576 34.01579088603576 0 0 1 -34.01579088603576 -34.01579088603576 V 321.2602472570044 H 94.488308016766 v 32.12602472570044 a 34.01579088603576 34.01579088603576 0 0 1 -34.01579088603576 34.01579088603576 H 0.0 L 0.0 183.30731755252603 l -132.2836312234724 94.488308016766 V 353.38627198270484 a 34.01579088603576 34.01579088603576 0 0 1 -34.01579088603576 34.01579088603576 H -264.5672624469448 L -264.5672624469448 188.976616033532 l -94.488308016766 132.2836312234724 V 353.38627198270484 a 34.01579088603576 34.01579088603576 0 0 1 -34.01579088603576 34.01579088603576 h -45.35438784804768 a 34.01579088603576 34.01579088603576 0 0 1 -34.01579088603576 -34.01579088603576 V 321.2602472570044 L -642.5204945140088 188.976616033532 V 387.4020628687406 h -98.26784033743664 a 34.01579088603576 34.01579088603576 0 0 1 -34.01579088603576 -34.01579088603576 V 277.79562556929204 L -907.0877569609536 183.30731755252603 L -907.0877569609536 5.66929848100596 l 22.67719392402384 -17.00789544301788 V -114.53128244456485 H -727.5599717290982 s 15.874035746816684 0.0 20.409474531621456 16.440965594917284 l 13.606316354414302 41.57485552737704 L -659.5283899570267 -40.08594885559769 L -659.5283899570267 5.66929848100596 L -247.55936700392692 5.66929848100596 V -40.08594885559769 L -213.54357611789115 -56.51546132227053 l 13.606316354414302 -41.57485552737704 s 4.535438784804769 -16.440965594917284 20.409474531621456 -16.440965594917284 H -22.67719392402384 V -11.33859696201192 Z" fill="none" stroke="blue" /></g></svg>