<?xml version="1.0" encoding="utf-8" ?>
<svg baseProfile="tiny" height="0" version="1.2" width="0" xmlns="http://www.w3.org/2000/svg" xmlns:ev="http://www.w3.org/2001/xml-events" xmlns:xlink="http://www.w3.org/1999/xlink"><defs /><g id="hendit"><path d="m 1695.1170424459574 -17.00786330213335 v -153.07076971920017 m 0.0 -11.338575534755568 h -1695.1170424459574 m -11.338575534755568 181.4172085560891 h -147.40148195182238 m -11.338575534755568 0.0 v 1689.4477546785797 m 11.338575534755568 0.0 h 147.40148195182238 m 11.338575534755568 181.4172085560891 h 1695.1170424459574 m 0.0 -11.338575534755568 v -153.07076971920017 m 187.0864963234669 -11.338575534755568 v -1700.7863302133353 m -181.4172085560891 0.0 h -1700.7863302133353 v 1700.7863302133353 h 1700.7863302133353 z" fill="none" stroke="red" /></g><g id="tall"><path d="m 1695.1170424459574 -5.669287767377784 v -5.669287767377784 h 198.42507185822245 v -164.40934525395573 h -198.42507185822245 v -204.09435962560022 h -1695.1170424459574 v 379.8422804143115 h -5.669287767377784 v -198.42507185822245 h -158.74005748657797 v 198.42507185822245 h -204.09435962560022 v 1689.4477546785797 h 204.09435962560022 v 198.42507185822245 h 158.74005748657797 v -198.42507185822245 h 5.669287767377784 v 379.8422804143115 h 1695.1170424459574 v -204.09435962560022 h 198.42507185822245 v -164.40934525395573 h -198.42507185822245 v -5.669287767377784 h 1887.8728265368022 v -1700.7863302133353 z" fill="none" stroke="blue" /></g></svg>