<?xml version="1.0" encoding="utf-8" ?>
<svg baseProfile="tiny" height="0" version="1.2" width="0" xmlns="http://www.w3.org/2000/svg" xmlns:ev="http://www.w3.org/2001/xml-events" xmlns:xlink="http://www.w3.org/1999/xlink"><defs /><g id="hendit"><path d="M 0.0 0.0 H 566.929848100596 V 298.58305333298057 H 0.0 ZM 0.0 295.7484040924776 H -139.84269586481366 M -139.84269586481366 298.58305333298057 h -566.929848100596 v -295.7484040924776 M -139.84269586481366 2.83464924050298 L -139.84269586481366 298.58305333298057 M -706.7725439654097 295.7484040924776 L -846.6152398302233 295.7484040924776 M -846.6152398302233 2.83464924050298 L -715.2764916869186 2.83464924050298 M -131.33874814330474 2.83464924050298 L 0.0 2.83464924050298 M 37.7953232067064 -139.84269586481366 L 529.1345248938896 -139.84269586481366 " fill="none" stroke="red" /></g><g id="tall"><path d="M -4.839048940747934 2.004399700244954 A 2.83464924050298 2.83464924050298 0 0 0 0.0 0.0 V -139.84269586481366 L 37.7953232067064 -139.84269586481366 v -5.66929848100596 h -32.12602472570044 v -37.7953232067064 a 37.7953232067064 37.7953232067064 0 0 1 37.7953232067064 -37.7953232067064 H 523.4652264128837 a 37.7953232067064 37.7953232067064 0 0 1 37.7953232067064 37.7953232067064 v 37.7953232067064 h -32.12602472570044 L 529.1345248938896 -139.84269586481366 H 566.929848100596 V 0.0 l 71.81111409274216 17.00789544301788 v 264.5672624469448 l -71.81111409274216 17.00789544301788 v 104.88202189861026 h -124.72456658213112 a 17.00789544301788 17.00789544301788 0 0 1 -17.00789544301788 -17.00789544301788 V 368.5044012653874 H 141.732462025149 v 17.95277852318554 a 17.00789544301788 17.00789544301788 0 0 1 -17.00789544301788 17.00789544301788 H 0.0 L 0.0 295.7484040924776 l -69.92134793240683 141.732462025149 V 385.5122967084053 a 17.00789544301788 17.00789544301788 0 0 1 -17.00789544301788 17.00789544301788 H -139.84269586481366 L -139.84269586481366 298.58305333298057 l -141.732462025149 69.92134793240683 V 386.45717978857294 a 17.00789544301788 17.00789544301788 0 0 1 -17.00789544301788 17.00789544301788 H -548.0321864972428 a 17.00789544301788 17.00789544301788 0 0 1 -17.00789544301788 -17.00789544301788 V 368.5044012653874 L -706.7725439654097 298.58305333298057 V 402.52019215142315 h -52.91345248938896 a 17.00789544301788 17.00789544301788 0 0 1 -17.00789544301788 -17.00789544301788 V 437.4808661176266 L -846.6152398302233 295.7484040924776 L -846.6152398302233 2.83464924050298 l 11.33859696201192 -8.50394772150894 V -171.79692366684728 H -749.2922825729544 s 7.937017873408342 0.0 10.204737265810728 8.220482797458642 l 6.803158177207151 62.36228329106556 L -715.2764916869186 -60.12892328339654 L -715.2764916869186 2.83464924050298 L -131.33874814330474 2.83464924050298 V -60.12892328339654 L -114.33085270028685 -101.21415757832307 l 6.803158177207151 -62.36228329106556 s 2.2677193924023844 -8.220482797458642 10.204737265810728 -8.220482797458642 H -11.33859696201192 V -5.66929848100596 Z" fill="none" stroke="blue" /></g></svg>