<?xml version="1.0" encoding="utf-8" ?>
<svg baseProfile="tiny" height="0" version="1.2" width="0" xmlns="http://www.w3.org/2000/svg" xmlns:ev="http://www.w3.org/2001/xml-events" xmlns:xlink="http://www.w3.org/1999/xlink"><defs /><g id="hendit"><path d="m 1723.4634812828465 -17.00786330213335 v -1400.3140785423127 m 0.0 -11.338575534755568 h -1723.4634812828465 m -11.338575534755568 1428.6605173792016 h -1394.644790774935 m -11.338575534755568 0.0 v 1717.7941935154686 m 11.338575534755568 0.0 h 1394.644790774935 m 11.338575534755568 1428.6605173792016 h 1723.4634812828465 m 0.0 -11.338575534755568 v -1400.3140785423127 m 1434.3298051465795 -11.338575534755568 v -1729.1327690502242 m -1428.6605173792016 0.0 h -1729.1327690502242 v 1729.1327690502242 h 1729.1327690502242 z" fill="none" stroke="red" /></g><g id="tall"><path d="m 1723.4634812828465 -5.669287767377784 v -5.669287767377784 h 198.42507185822245 v -1411.6526540770683 h -198.42507185822245 v -204.09435962560022 h -1723.4634812828465 v 1627.085589237424 h -5.669287767377784 v -198.42507185822245 h -1405.9833663096904 v 198.42507185822245 h -204.09435962560022 v 1717.7941935154686 h 204.09435962560022 v 198.42507185822245 h 1405.9833663096904 v -198.42507185822245 h 5.669287767377784 v 1627.085589237424 h 1723.4634812828465 v -204.09435962560022 h 198.42507185822245 v -1411.6526540770683 h -198.42507185822245 v -5.669287767377784 h 3163.4625741968034 v -1729.1327690502242 z" fill="none" stroke="blue" /></g></svg>