<?xml version="1.0" encoding="utf-8" ?>
<svg baseProfile="tiny" height="0" version="1.2" width="0" xmlns="http://www.w3.org/2000/svg" xmlns:ev="http://www.w3.org/2001/xml-events" xmlns:xlink="http://www.w3.org/1999/xlink"><defs /><g id="hendit"><path d="m 1882.2070956939788 -22.67719392402384 v -52.91345248938896 m 0.0 -15.11812928268256 h -1882.2070956939788 m -15.11812928268256 90.70877569609536 h -45.35438784804768 m -15.11812928268256 0.0 v 1874.6480310526374 m 15.11812928268256 0.0 h 45.35438784804768 m 15.11812928268256 90.70877569609536 h 1882.2070956939788 m 0.0 -15.11812928268256 v -52.91345248938896 m 98.26784033743664 -15.11812928268256 v -1889.76616033532 m -90.70877569609536 0.0 h -1889.76616033532 v 1889.76616033532 h 1889.76616033532 z" fill="none" stroke="red" /></g><g id="tall"><path d="m 1882.2070956939788 -7.55906464134128 v -7.55906464134128 h 264.5672624469448 v -68.03158177207152 h -264.5672624469448 v -272.1263270882861 h -1882.2070956939788 v 355.2760381430402 h -7.55906464134128 v -264.5672624469448 h -60.47251713073024 v 264.5672624469448 h -272.1263270882861 v 1874.6480310526374 h 272.1263270882861 v 264.5672624469448 h 60.47251713073024 v -264.5672624469448 h 7.55906464134128 v 355.2760381430402 h 1882.2070956939788 v -272.1263270882861 h 264.5672624469448 v -68.03158177207152 h -264.5672624469448 v -7.55906464134128 h 1988.0340006727565 v -1889.76616033532 z" fill="none" stroke="blue" /></g></svg>