<?xml version="1.0" encoding="utf-8" ?>
<svg baseProfile="tiny" height="0" version="1.2" width="0" xmlns="http://www.w3.org/2000/svg" xmlns:ev="http://www.w3.org/2001/xml-events" xmlns:xlink="http://www.w3.org/1999/xlink"><defs /><g id="hendit"><path d="M 0.0 0.0 H 326.92954573801035 V 298.58305333298057 H 0.0 ZM 0.0 295.7484040924776 H -139.84269586481366 M -139.84269586481366 298.58305333298057 h -326.92954573801035 v -295.7484040924776 M -139.84269586481366 2.83464924050298 L -139.84269586481366 298.58305333298057 M -466.772241602824 295.7484040924776 L -606.6149374676377 295.7484040924776 M -606.6149374676377 2.83464924050298 L -475.27618932433296 2.83464924050298 M -131.33874814330474 2.83464924050298 L 0.0 2.83464924050298 M 37.7953232067064 -139.84269586481366 L 289.134222531304 -139.84269586481366 " fill="none" stroke="red" /></g><g id="tall"><path d="M -4.839048940747934 2.004399700244954 A 2.83464924050298 2.83464924050298 0 0 0 0.0 0.0 V -139.84269586481366 L 37.7953232067064 -139.84269586481366 v -5.66929848100596 h -32.12602472570044 v -37.7953232067064 a 37.7953232067064 37.7953232067064 0 0 1 37.7953232067064 -37.7953232067064 H 283.464924050298 a 37.7953232067064 37.7953232067064 0 0 1 37.7953232067064 37.7953232067064 v 37.7953232067064 h -32.12602472570044 L 289.134222531304 -139.84269586481366 H 326.92954573801035 V 0.0 l 71.81111409274216 17.00789544301788 v 264.5672624469448 l -71.81111409274216 17.00789544301788 v 104.88202189861026 h -64.72449099148471 a 17.00789544301788 17.00789544301788 0 0 1 -17.00789544301788 -17.00789544301788 V 368.5044012653874 H 81.73238643450259 v 17.95277852318554 a 17.00789544301788 17.00789544301788 0 0 1 -17.00789544301788 17.00789544301788 H 0.0 L 0.0 295.7484040924776 l -69.92134793240683 81.73238643450259 V 397.323335210501 a 17.00789544301788 17.00789544301788 0 0 1 -17.00789544301788 17.00789544301788 H -139.84269586481366 L -139.84269586481366 298.58305333298057 l -81.73238643450259 69.92134793240683 V 386.45717978857294 a 17.00789544301788 17.00789544301788 0 0 1 -17.00789544301788 17.00789544301788 H -368.0319597253036 a 17.00789544301788 17.00789544301788 0 0 1 -17.00789544301788 -17.00789544301788 V 368.5044012653874 L -466.772241602824 298.58305333298057 V 414.3312306535189 h -52.91345248938896 a 17.00789544301788 17.00789544301788 0 0 1 -17.00789544301788 -17.00789544301788 V 377.4807905269802 L -606.6149374676377 295.7484040924776 L -606.6149374676377 2.83464924050298 l 11.33859696201192 -8.50394772150894 V -99.0695593145486 H -509.2919802103687 s 7.937017873408342 0.0 10.204737265810728 8.220482797458642 l 6.803158177207151 35.96225003118114 L -475.27618932433296 -34.674345760092 L -475.27618932433296 2.83464924050298 L -131.33874814330474 2.83464924050298 V -34.674345760092 L -114.33085270028685 -54.88682648590881 l 6.803158177207151 -35.96225003118114 s 2.2677193924023844 -8.220482797458642 10.204737265810728 -8.220482797458642 H -11.33859696201192 V -5.66929848100596 Z" fill="none" stroke="blue" /></g></svg>