<?xml version="1.0" encoding="utf-8" ?>
<svg baseProfile="tiny" height="0" version="1.2" width="0" xmlns="http://www.w3.org/2000/svg" xmlns:ev="http://www.w3.org/2001/xml-events" xmlns:xlink="http://www.w3.org/1999/xlink"><defs /><g id="incisions"><path d="M -290.64603545957226 593.3865743452905 h 192.75614835420265 v -11.33859696201192 h 15.11812928268256 v -18.8976616033532 h -0.377953232067064 v 18.519708371286136 h -222.23650045543363 v -18.519708371286136 h -0.377953232067064 v 18.8976616033532 h 15.11812928268256 z M 97.88988710536958 593.3865743452905 h 192.75614835420265 v -11.33859696201192 h 15.11812928268256 v -18.8976616033532 h -0.377953232067064 v 18.519708371286136 h -222.23650045543363 v -18.519708371286136 h -0.377953232067064 v 18.8976616033532 h 15.11812928268256 z M 97.88988710536958 1141.4187608425332 h 192.75614835420265 v -11.33859696201192 h 15.11812928268256 v -18.8976616033532 h -0.377953232067064 v 18.519708371286136 h -222.23650045543363 v -18.519708371286136 h -0.377953232067064 v 18.8976616033532 h 15.11812928268256 z M -290.64603545957226 1141.4187608425332 h 192.75614835420265 v -11.33859696201192 h 15.11812928268256 v -18.8976616033532 h -0.377953232067064 v 18.519708371286136 h -222.23650045543363 v -18.519708371286136 h -0.377953232067064 v 18.8976616033532 h 15.11812928268256 z M 97.88988710536958 1689.4509473397761 h 192.75614835420265 v -11.33859696201192 h 15.11812928268256 v -18.8976616033532 h -0.377953232067064 v 18.519708371286136 h -222.23650045543363 v -18.519708371286136 h -0.377953232067064 v 18.8976616033532 h 15.11812928268256 z M -290.64603545957226 1689.4509473397761 h 192.75614835420265 v -11.33859696201192 h 15.11812928268256 v -18.8976616033532 h -0.377953232067064 v 18.519708371286136 h -222.23650045543363 v -18.519708371286136 h -0.377953232067064 v 18.8976616033532 h 15.11812928268256 z M 97.88988710536958 2237.4831338370186 h 192.75614835420265 v -11.33859696201192 h 15.11812928268256 v -18.8976616033532 h -0.377953232067064 v 18.519708371286136 h -222.23650045543363 v -18.519708371286136 h -0.377953232067064 v 18.8976616033532 h 15.11812928268256 z M -290.64603545957226 2237.4831338370186 h 192.75614835420265 v -11.33859696201192 h 15.11812928268256 v -18.8976616033532 h -0.377953232067064 v 18.519708371286136 h -222.23650045543363 v -18.519708371286136 h -0.377953232067064 v 18.8976616033532 h 15.11812928268256 z M 948.6626124883306 417.6383214341057 h 11.33859696201192 v 117.16550194078984 h -11.33859696201192 v -58.58275097039492 h 10.960643729944856 v -58.204797738327855 h -10.960643729944856 z M 948.6626124883306 965.6705079313485 h 11.33859696201192 v 117.16550194078984 h -11.33859696201192 v -58.58275097039492 h 10.960643729944856 v -58.204797738327855 h -10.960643729944856 z M 948.6626124883306 1513.7026944285913 h 11.33859696201192 v 117.16550194078984 h -11.33859696201192 v -58.58275097039492 h 10.960643729944856 v -58.204797738327855 h -10.960643729944856 z M 948.6626124883306 2061.734880925834 h 11.33859696201192 v 117.16550194078984 h -11.33859696201192 v -58.58275097039492 h 10.960643729944856 v -58.204797738327855 h -10.960643729944856 z M -948.6626124883306 2061.734880925834 h -11.33859696201192 v 117.16550194078984 h 11.33859696201192 v -58.58275097039492 h -10.960643729944856 v -58.204797738327855 h 10.960643729944856 z M -948.6626124883306 1513.7026944285913 h -11.33859696201192 v 117.16550194078984 h 11.33859696201192 v -58.58275097039492 h -10.960643729944856 v -58.204797738327855 h 10.960643729944856 z M -948.6626124883306 965.6705079313485 h -11.33859696201192 v 117.16550194078984 h 11.33859696201192 v -58.58275097039492 h -10.960643729944856 v -58.204797738327855 h 10.960643729944856 z M -948.6626124883306 417.6383214341057 h -11.33859696201192 v 117.16550194078984 h 11.33859696201192 v -58.58275097039492 h -10.960643729944856 v -58.204797738327855 h 10.960643729944856 z " fill="none" stroke="blue" /></g><g id="semitall"><path d="M -305.7641647422548 563.1503157799253 h 222.99240691956777 M 82.77175782268702 563.1503157799253 h 222.99240691956777 M 82.77175782268702 1111.1825022771682 h 222.99240691956777 M -305.7641647422548 1111.1825022771682 h 222.99240691956777 M 82.77175782268702 1659.214688774411 h 222.99240691956777 M -305.7641647422548 1659.214688774411 h 222.99240691956777 M 82.77175782268702 2207.2468752716536 h 222.99240691956777 M -305.7641647422548 2207.2468752716536 h 222.99240691956777 M 948.6626124883306 417.6383214341057 v 58.58275097039492 M 948.6626124883306 965.6705079313485 v 58.58275097039492 M 948.6626124883306 1513.7026944285913 v 58.58275097039492 M 948.6626124883306 2061.734880925834 v 58.58275097039492 M -948.6626124883306 2061.734880925834 v 58.58275097039492 M -948.6626124883306 1513.7026944285913 v 58.58275097039492 M -948.6626124883306 965.6705079313485 v 58.58275097039492 M -948.6626124883306 417.6383214341057 v 58.58275097039492 " fill="none" stroke="green" /></g><g id="tall_silueta_principal"><path d="M 376.87277880582883 0.0 Q 431.761447751499 0.0 468.48124752173595 25.886407850375345 L 923.0924330640718 346.37771577317517 Q 986.457935695037 390.9861021383415 986.457935695037 451.00090487216863 V 2267.719392402384 H -986.457935695037 V 451.00090487216863 Q -986.457935695037 390.9861021383415 -923.0924330640718 346.37771577317517 L -468.48124752173595 25.886407850375345 Q -431.761447751499 0.0 -376.87277880582883 0.0 Z " fill="none" stroke="blue" /></g></svg>