<?xml version="1.0" encoding="utf-8" ?>
<svg baseProfile="tiny" height="0" version="1.2" width="0" xmlns="http://www.w3.org/2000/svg" xmlns:ev="http://www.w3.org/2001/xml-events" xmlns:xlink="http://www.w3.org/1999/xlink"><defs /><g id="incisions"><path d="M -249.0711799321952 1436.2222818548432 h 151.1812928268256 v -22.67719392402384 h 37.7953232067064 v -30.23625856536512 h -0.377953232067064 v 29.858305333298055 h -226.01603277610425 v -29.858305333298055 h -0.377953232067064 v 30.23625856536512 h 37.7953232067064 z M 97.88988710536958 1436.2222818548432 h 151.1812928268256 v -22.67719392402384 h 37.7953232067064 v -30.23625856536512 h -0.377953232067064 v 29.858305333298055 h -226.01603277610425 v -29.858305333298055 h -0.377953232067064 v 30.23625856536512 h 37.7953232067064 z M 97.88988710536958 2759.058594089567 h 151.1812928268256 v -22.67719392402384 h 37.7953232067064 v -30.23625856536512 h -0.377953232067064 v 29.858305333298055 h -226.01603277610425 v -29.858305333298055 h -0.377953232067064 v 30.23625856536512 h 37.7953232067064 z M -249.0711799321952 2759.058594089567 h 151.1812928268256 v -22.67719392402384 h 37.7953232067064 v -30.23625856536512 h -0.377953232067064 v 29.858305333298055 h -226.01603277610425 v -29.858305333298055 h -0.377953232067064 v 30.23625856536512 h 37.7953232067064 z M 97.88988710536958 4081.8949063242912 h 151.1812928268256 v -22.67719392402384 h 37.7953232067064 v -30.23625856536512 h -0.377953232067064 v 29.858305333298055 h -226.01603277610425 v -29.858305333298055 h -0.377953232067064 v 30.23625856536512 h 37.7953232067064 z M -249.0711799321952 4081.8949063242912 h 151.1812928268256 v -22.67719392402384 h 37.7953232067064 v -30.23625856536512 h -0.377953232067064 v 29.858305333298055 h -226.01603277610425 v -29.858305333298055 h -0.377953232067064 v 30.23625856536512 h 37.7953232067064 z M 97.88988710536958 5404.731218559015 h 151.1812928268256 v -22.67719392402384 h 37.7953232067064 v -30.23625856536512 h -0.377953232067064 v 29.858305333298055 h -226.01603277610425 v -29.858305333298055 h -0.377953232067064 v 30.23625856536512 h 37.7953232067064 z M -249.0711799321952 5404.731218559015 h 151.1812928268256 v -22.67719392402384 h 37.7953232067064 v -30.23625856536512 h -0.377953232067064 v 29.858305333298055 h -226.01603277610425 v -29.858305333298055 h -0.377953232067064 v 30.23625856536512 h 37.7953232067064 z M 1332.2851430364005 1175.434551728569 h 22.67719392402384 v 173.85848675084944 h -22.67719392402384 v -86.92924337542472 h 22.299240691956776 v -86.55129014335765 h -22.299240691956776 z M 1332.2851430364005 2498.270863963293 h 22.67719392402384 v 173.85848675084944 h -22.67719392402384 v -86.92924337542472 h 22.299240691956776 v -86.55129014335765 h -22.299240691956776 z M 1332.2851430364005 3821.107176198017 h 22.67719392402384 v 173.85848675084944 h -22.67719392402384 v -86.92924337542472 h 22.299240691956776 v -86.55129014335765 h -22.299240691956776 z M 1332.2851430364005 5143.943488432741 h 22.67719392402384 v 173.85848675084944 h -22.67719392402384 v -86.92924337542472 h 22.299240691956776 v -86.55129014335765 h -22.299240691956776 z M -1332.2851430364005 5143.943488432741 h -22.67719392402384 v 173.85848675084944 h 22.67719392402384 v -86.92924337542472 h -22.299240691956776 v -86.55129014335765 h 22.299240691956776 z M -1332.2851430364005 3821.107176198017 h -22.67719392402384 v 173.85848675084944 h 22.67719392402384 v -86.92924337542472 h -22.299240691956776 v -86.55129014335765 h 22.299240691956776 z M -1332.2851430364005 2498.270863963293 h -22.67719392402384 v 173.85848675084944 h 22.67719392402384 v -86.92924337542472 h -22.299240691956776 v -86.55129014335765 h 22.299240691956776 z M -1332.2851430364005 1175.434551728569 h -22.67719392402384 v 173.85848675084944 h 22.67719392402384 v -86.92924337542472 h -22.299240691956776 v -86.55129014335765 h 22.299240691956776 z " fill="none" stroke="blue" /></g><g id="semitall"><path d="M -286.8665031389016 1383.3088293654541 h 226.7719392402384 M 60.09456389866318 1383.3088293654541 h 226.7719392402384 M 60.09456389866318 2706.1451416001782 h 226.7719392402384 M -286.8665031389016 2706.1451416001782 h 226.7719392402384 M 60.09456389866318 4028.9814538349024 h 226.7719392402384 M -286.8665031389016 4028.9814538349024 h 226.7719392402384 M 60.09456389866318 5351.8177660696265 h 226.7719392402384 M -286.8665031389016 5351.8177660696265 h 226.7719392402384 M 1332.2851430364005 1175.434551728569 v 86.92924337542472 M 1332.2851430364005 2498.270863963293 v 86.92924337542472 M 1332.2851430364005 3821.107176198017 v 86.92924337542472 M 1332.2851430364005 5143.943488432741 v 86.92924337542472 M -1332.2851430364005 5143.943488432741 v 86.92924337542472 M -1332.2851430364005 3821.107176198017 v 86.92924337542472 M -1332.2851430364005 2498.270863963293 v 86.92924337542472 M -1332.2851430364005 1175.434551728569 v 86.92924337542472 " fill="none" stroke="green" /></g><g id="tall_silueta_principal"><path d="M 480.737613527702 0.0 Q 564.9002392443964 0.0 621.2039322254262 62.558818971740415 L 1318.2744167236744 837.0794797851732 Q 1415.4348540911546 944.8830801676585 1415.4348540911546 1089.9188534410741 V 5480.321864972428 H -1415.4348540911546 V 1089.9188534410741 Q -1415.4348540911546 944.8830801676585 -1318.2744167236744 837.0794797851732 L -621.2039322254262 62.558818971740415 Q -564.9002392443964 0.0 -480.737613527702 0.0 Z " fill="none" stroke="blue" /></g></svg>