<?xml version="1.0" encoding="utf-8" ?>
<svg baseProfile="tiny" height="0" version="1.2" width="0" xmlns="http://www.w3.org/2000/svg" xmlns:ev="http://www.w3.org/2001/xml-events" xmlns:xlink="http://www.w3.org/1999/xlink"><defs /><g id="corona"><path d="M 848.9758431648232 10357.788750999212 h -1697.9516863296465 " fill="none" stroke="blue" /></g><g id="hendit_balda1"><path d="M 848.9758431648232 4251.965825533338 h -1697.9516863296465 " fill="none" stroke="red" /></g><g id="hendit_balda2"><path d="M 848.9758431648232 6287.240134021963 h -1697.9516863296465 " fill="none" stroke="red" /></g><g id="hendit_balda3"><path d="M 848.9758431648232 8322.514442510586 h -1697.9516863296465 " fill="none" stroke="red" /></g><g id="hendit_balda4"><path d="M 848.9758431648232 10357.788750999212 h -1697.9516863296465 " fill="none" stroke="red" /></g><g id="hendit_ppal"><path d="M 858.8970967577343 0.0 V 3401.5726604266706 M -858.8970967577343 3401.5726604266706 V 0.0 " fill="none" stroke="red" /></g><g id="incisions"><path d="M -573.3067254760784 909.9206866641343 h 127.55897476600015 v -19.842507185822246 h 34.0157266042667 v -25.511794953200027 h -0.2834643883688892 v 25.22833056483114 h -195.02349919779576 v -25.22833056483114 h -0.2834643883688892 v 25.511794953200027 h 34.0157266042667 z M 445.74775071007826 909.9206866641343 h 127.55897476600015 v -19.842507185822246 h 34.0157266042667 v -25.511794953200027 h -0.2834643883688892 v 25.22833056483114 h -195.02349919779576 v -25.22833056483114 h -0.2834643883688892 v 25.511794953200027 h 34.0157266042667 z M 445.74775071007826 1717.7941935154686 h 127.55897476600015 v -19.842507185822246 h 34.0157266042667 v -25.511794953200027 h -0.2834643883688892 v 25.22833056483114 h -195.02349919779576 v -25.22833056483114 h -0.2834643883688892 v 25.511794953200027 h 34.0157266042667 z M -573.3067254760784 1717.7941935154686 h 127.55897476600015 v -19.842507185822246 h 34.0157266042667 v -25.511794953200027 h -0.2834643883688892 v 25.22833056483114 h -195.02349919779576 v -25.22833056483114 h -0.2834643883688892 v 25.511794953200027 h 34.0157266042667 z M 445.74775071007826 2525.667700366803 h 127.55897476600015 v -19.842507185822246 h 34.0157266042667 v -25.511794953200027 h -0.2834643883688892 v 25.22833056483114 h -195.02349919779576 v -25.22833056483114 h -0.2834643883688892 v 25.511794953200027 h 34.0157266042667 z M -573.3067254760784 2525.667700366803 h 127.55897476600015 v -19.842507185822246 h 34.0157266042667 v -25.511794953200027 h -0.2834643883688892 v 25.22833056483114 h -195.02349919779576 v -25.22833056483114 h -0.2834643883688892 v 25.511794953200027 h 34.0157266042667 z M 445.74775071007826 3333.541207218137 h 127.55897476600015 v -19.842507185822246 h 34.0157266042667 v -25.511794953200027 h -0.2834643883688892 v 25.22833056483114 h -195.02349919779576 v -25.22833056483114 h -0.2834643883688892 v 25.511794953200027 h 34.0157266042667 z M -573.3067254760784 3333.541207218137 h 127.55897476600015 v -19.842507185822246 h 34.0157266042667 v -25.511794953200027 h -0.2834643883688892 v 25.22833056483114 h -195.02349919779576 v -25.22833056483114 h -0.2834643883688892 v 25.511794953200027 h 34.0157266042667 z M 1992.7546502332912 267.8738470086003 h 19.842507185822246 v 428.0312264370227 h -19.842507185822246 v -214.01561321851136 h 19.559042797453355 v -213.73214883014248 h -19.559042797453355 z M 1992.7546502332912 1075.7473538599345 h 19.842507185822246 v 428.0312264370227 h -19.842507185822246 v -214.01561321851136 h 19.559042797453355 v -213.73214883014248 h -19.559042797453355 z M 1992.7546502332912 1883.6208607112687 h 19.842507185822246 v 428.0312264370227 h -19.842507185822246 v -214.01561321851136 h 19.559042797453355 v -213.73214883014248 h -19.559042797453355 z M 1992.7546502332912 2691.494367562603 h 19.842507185822246 v 428.0312264370227 h -19.842507185822246 v -214.01561321851136 h 19.559042797453355 v -213.73214883014248 h -19.559042797453355 z M -1992.7546502332912 2691.494367562603 h -19.842507185822246 v 428.0312264370227 h 19.842507185822246 v -214.01561321851136 h -19.559042797453355 v -213.73214883014248 h 19.559042797453355 z M -1992.7546502332912 1883.6208607112687 h -19.842507185822246 v 428.0312264370227 h 19.842507185822246 v -214.01561321851136 h -19.559042797453355 v -213.73214883014248 h 19.559042797453355 z M -1992.7546502332912 1075.7473538599345 h -19.842507185822246 v 428.0312264370227 h 19.842507185822246 v -214.01561321851136 h -19.559042797453355 v -213.73214883014248 h 19.559042797453355 z M -1992.7546502332912 267.8738470086003 h -19.842507185822246 v 428.0312264370227 h 19.842507185822246 v -214.01561321851136 h -19.559042797453355 v -213.73214883014248 h 19.559042797453355 z " fill="none" stroke="blue" /></g><g id="semitall"><path d="M -607.3224520803451 864.5663845251121 h 195.59042797453355 M 411.73202410581155 864.5663845251121 h 195.59042797453355 M 411.73202410581155 1672.4398913764464 h 195.59042797453355 M -607.3224520803451 1672.4398913764464 h 195.59042797453355 M 411.73202410581155 2480.3133982277805 h 195.59042797453355 M -607.3224520803451 2480.3133982277805 h 195.59042797453355 M 411.73202410581155 3288.1869050791147 h 195.59042797453355 M -607.3224520803451 3288.1869050791147 h 195.59042797453355 M 1992.7546502332912 267.8738470086003 v 214.01561321851136 M 1992.7546502332912 1075.7473538599345 v 214.01561321851136 M 1992.7546502332912 1883.6208607112687 v 214.01561321851136 M 1992.7546502332912 2691.494367562603 v 214.01561321851136 M -1992.7546502332912 2691.494367562603 v 214.01561321851136 M -1992.7546502332912 1883.6208607112687 v 214.01561321851136 M -1992.7546502332912 1075.7473538599345 v 214.01561321851136 M -1992.7546502332912 267.8738470086003 v 214.01561321851136 " fill="none" stroke="green" /></g><g id="tall_balda1"><path d="M 868.8183503506455 3826.7692429800045 a 212.5982912766669 212.5982912766669 0 0 1 0.0 425.1965825533338 v -214.01561321851136 h -19.842507185822246 v 1347.8731666940682 h -277.0864396305892 v 19.842507185822246 h 34.0157266042667 v 17.00786330213335 l -14.17321941844446 14.17321941844446 h -164.40934525395573 l -14.17321941844446 -14.17321941844446 v -17.00786330213335 h 34.0157266042667 v -19.842507185822246 h -894.3301453038455 v 19.842507185822246 h 34.0157266042667 v 17.00786330213335 l -14.17321941844446 14.17321941844446 h -164.40934525395573 l -14.17321941844446 -14.17321941844446 v -17.00786330213335 h 34.0157266042667 v -19.842507185822246 h -277.0864396305892 v -1347.8731666940682 h -19.842507185822246 v 214.01561321851136 a 212.5982912766669 212.5982912766669 0 0 1 0.0 -425.1965825533338 z" fill="none" stroke="blue" /></g><g id="tall_balda2"><path d="M 868.8183503506455 5862.043551468629 a 212.5982912766669 212.5982912766669 0 0 1 0.0 425.1965825533338 v -214.01561321851136 h -19.842507185822246 v 1347.8731666940682 h -277.0864396305892 v 19.842507185822246 h 34.0157266042667 v 17.00786330213335 l -14.17321941844446 14.17321941844446 h -164.40934525395573 l -14.17321941844446 -14.17321941844446 v -17.00786330213335 h 34.0157266042667 v -19.842507185822246 h -894.3301453038455 v 19.842507185822246 h 34.0157266042667 v 17.00786330213335 l -14.17321941844446 14.17321941844446 h -164.40934525395573 l -14.17321941844446 -14.17321941844446 v -17.00786330213335 h 34.0157266042667 v -19.842507185822246 h -277.0864396305892 v -1347.8731666940682 h -19.842507185822246 v 214.01561321851136 a 212.5982912766669 212.5982912766669 0 0 1 0.0 -425.1965825533338 z" fill="none" stroke="blue" /></g><g id="tall_balda3"><path d="M 868.8183503506455 7897.317859957253 a 212.5982912766669 212.5982912766669 0 0 1 0.0 425.1965825533338 v -214.01561321851136 h -19.842507185822246 v 1347.8731666940682 h -277.0864396305892 v 19.842507185822246 h 34.0157266042667 v 17.00786330213335 l -14.17321941844446 14.17321941844446 h -164.40934525395573 l -14.17321941844446 -14.17321941844446 v -17.00786330213335 h 34.0157266042667 v -19.842507185822246 h -894.3301453038455 v 19.842507185822246 h 34.0157266042667 v 17.00786330213335 l -14.17321941844446 14.17321941844446 h -164.40934525395573 l -14.17321941844446 -14.17321941844446 v -17.00786330213335 h 34.0157266042667 v -19.842507185822246 h -277.0864396305892 v -1347.8731666940682 h -19.842507185822246 v 214.01561321851136 a 212.5982912766669 212.5982912766669 0 0 1 0.0 -425.1965825533338 z" fill="none" stroke="blue" /></g><g id="tall_balda4"><path d="M 868.8183503506455 9932.592168445877 a 212.5982912766669 212.5982912766669 0 0 1 0.0 425.1965825533338 v -214.01561321851136 h -19.842507185822246 v 1347.8731666940682 h -277.0864396305892 v 19.842507185822246 h 34.0157266042667 v 17.00786330213335 l -14.17321941844446 14.17321941844446 h -164.40934525395573 l -14.17321941844446 -14.17321941844446 v -17.00786330213335 h 34.0157266042667 v -19.842507185822246 h -894.3301453038455 v 19.842507185822246 h 34.0157266042667 v 17.00786330213335 l -14.17321941844446 14.17321941844446 h -164.40934525395573 l -14.17321941844446 -14.17321941844446 v -17.00786330213335 h 34.0157266042667 v -19.842507185822246 h -277.0864396305892 v -1347.8731666940682 h -19.842507185822246 v 214.01561321851136 a 212.5982912766669 212.5982912766669 0 0 1 0.0 -425.1965825533338 z" fill="none" stroke="blue" /></g><g id="tall_corona"><path d="M 763.9365266541564 -1304.2005102030864 a 85.03931651066677 85.03931651066677 0 0 1 85.03931651066677 85.03931651066677 v 793.9646111390858 h -262.9132202121447 q -17.00786330213335 0.0 -17.00786330213335 -17.00786330213335 v -31.44540642677395 q 0.0 -17.00786330213335 -17.00786330213335 -17.00786330213335 h -45.35430213902227 q -14.796841072856015 0.0 -16.15747013702668 8.503931651066676 L 449.14932337050493 -435.4013005346138 Q 445.74775071007826 -425.1965825533338 435.54303272879827 -425.1965825533338 H -435.54303272879827 Q -445.74775071007826 -425.1965825533338 -449.14932337050493 -435.4013005346138 l -41.102336313488934 -46.75248339869396 q -0.8503931651066677 -8.503931651066676 -16.15747013702668 -8.503931651066676 h -45.35430213902227 q -17.00786330213335 0.0 -17.00786330213335 17.00786330213335 v 31.44540642677395 q 0.0 17.00786330213335 -17.00786330213335 17.00786330213335 h -262.9132202121447 v -793.9646111390858 a 85.03931651066677 85.03931651066677 0 0 1 85.03931651066677 -85.03931651066677 Z" fill="none" stroke="blue" /></g><g id="tall_silueta_ppal"><path d="M 1139.016869441127 0.0 Q 1222.525900810212 0.0 1278.3923477432659 14.897270431525442 L 1970.0494872481345 193.4145000192895 Q 2066.4553912092024 217.78361545414663 2066.4553912092024 251.69078211143366 V 3401.5726604266706 H -2066.4553912092024 V 251.69078211143366 Q -2066.4553912092024 217.78361545414663 -1970.0494872481345 193.4145000192895 L -1278.3923477432659 14.897270431525442 Q -1222.525900810212 0.0 -1139.016869441127 0.0 Z " fill="none" stroke="blue" /></g></svg>