<?xml version="1.0" encoding="utf-8" ?>
<svg baseProfile="tiny" height="0" version="1.2" width="0" xmlns="http://www.w3.org/2000/svg" xmlns:ev="http://www.w3.org/2001/xml-events" xmlns:xlink="http://www.w3.org/1999/xlink"><defs /><g id="hendit_balda1"><path d="M 942.9933140073247 2796.8539172962737 h -1885.9866280146493 " fill="none" stroke="red" /></g><g id="hendit_balda2"><path d="M 942.9933140073247 4191.50134362374 h -1885.9866280146493 " fill="none" stroke="red" /></g><g id="hendit_balda3"><path d="M 942.9933140073247 5586.148769951205 h -1885.9866280146493 " fill="none" stroke="red" /></g><g id="hendit_balda4"><path d="M 942.9933140073247 6980.796196278672 h -1885.9866280146493 " fill="none" stroke="red" /></g><g id="hendit_ppal"><path d="M 950.5523786486659 0.0 V 2570.081978056035 M -950.5523786486659 2570.081978056035 V 0.0 " fill="none" stroke="red" /></g><g id="incisions"><path d="M -640.6307283536735 682.2055838810505 h 151.1812928268256 v -15.11812928268256 h 22.67719392402384 v -22.67719392402384 h -0.377953232067064 v 22.299240691956776 h -195.77977421073913 v -22.299240691956776 h -0.377953232067064 v 22.67719392402384 h 22.67719392402384 z M 489.4494355268479 682.2055838810505 h 151.1812928268256 v -15.11812928268256 h 22.67719392402384 v -22.67719392402384 h -0.377953232067064 v 22.299240691956776 h -195.77977421073913 v -22.299240691956776 h -0.377953232067064 v 22.67719392402384 h 22.67719392402384 z M 489.4494355268479 1296.3795859900295 h 151.1812928268256 v -15.11812928268256 h 22.67719392402384 v -22.67719392402384 h -0.377953232067064 v 22.299240691956776 h -195.77977421073913 v -22.299240691956776 h -0.377953232067064 v 22.67719392402384 h 22.67719392402384 z M -640.6307283536735 1296.3795859900295 h 151.1812928268256 v -15.11812928268256 h 22.67719392402384 v -22.67719392402384 h -0.377953232067064 v 22.299240691956776 h -195.77977421073913 v -22.299240691956776 h -0.377953232067064 v 22.67719392402384 h 22.67719392402384 z M 489.4494355268479 1910.5535880990085 h 151.1812928268256 v -15.11812928268256 h 22.67719392402384 v -22.67719392402384 h -0.377953232067064 v 22.299240691956776 h -195.77977421073913 v -22.299240691956776 h -0.377953232067064 v 22.67719392402384 h 22.67719392402384 z M -640.6307283536735 1910.5535880990085 h 151.1812928268256 v -15.11812928268256 h 22.67719392402384 v -22.67719392402384 h -0.377953232067064 v 22.299240691956776 h -195.77977421073913 v -22.299240691956776 h -0.377953232067064 v 22.67719392402384 h 22.67719392402384 z M 489.4494355268479 2524.7275902079873 h 151.1812928268256 v -15.11812928268256 h 22.67719392402384 v -22.67719392402384 h -0.377953232067064 v 22.299240691956776 h -195.77977421073913 v -22.299240691956776 h -0.377953232067064 v 22.67719392402384 h 22.67719392402384 z M -640.6307283536735 2524.7275902079873 h 151.1812928268256 v -15.11812928268256 h 22.67719392402384 v -22.67719392402384 h -0.377953232067064 v 22.299240691956776 h -195.77977421073913 v -22.299240691956776 h -0.377953232067064 v 22.67719392402384 h 22.67719392402384 z M 2084.412074849858 506.4573309698658 h 15.11812928268256 v 117.16550194078984 h -15.11812928268256 v -58.58275097039492 h 14.740176050615496 v -58.204797738327855 h -14.740176050615496 z M 2084.412074849858 1120.6313330788448 h 15.11812928268256 v 117.16550194078984 h -15.11812928268256 v -58.58275097039492 h 14.740176050615496 v -58.204797738327855 h -14.740176050615496 z M 2084.412074849858 1734.8053351878236 h 15.11812928268256 v 117.16550194078984 h -15.11812928268256 v -58.58275097039492 h 14.740176050615496 v -58.204797738327855 h -14.740176050615496 z M 2084.412074849858 2348.979337296803 h 15.11812928268256 v 117.16550194078984 h -15.11812928268256 v -58.58275097039492 h 14.740176050615496 v -58.204797738327855 h -14.740176050615496 z M -2084.412074849858 2348.979337296803 h -15.11812928268256 v 117.16550194078984 h 15.11812928268256 v -58.58275097039492 h -14.740176050615496 v -58.204797738327855 h 14.740176050615496 z M -2084.412074849858 1734.8053351878236 h -15.11812928268256 v 117.16550194078984 h 15.11812928268256 v -58.58275097039492 h -14.740176050615496 v -58.204797738327855 h 14.740176050615496 z M -2084.412074849858 1120.6313330788448 h -15.11812928268256 v 117.16550194078984 h 15.11812928268256 v -58.58275097039492 h -14.740176050615496 v -58.204797738327855 h 14.740176050615496 z M -2084.412074849858 506.4573309698658 h -15.11812928268256 v 117.16550194078984 h 15.11812928268256 v -58.58275097039492 h -14.740176050615496 v -58.204797738327855 h 14.740176050615496 z " fill="none" stroke="blue" /></g><g id="semitall"><path d="M -663.3079222776973 644.4102606743442 h 196.53568067487328 M 466.772241602824 644.4102606743442 h 196.53568067487328 M 466.772241602824 1258.584262783323 h 196.53568067487328 M -663.3079222776973 1258.584262783323 h 196.53568067487328 M 466.772241602824 1872.7582648923021 h 196.53568067487328 M -663.3079222776973 1872.7582648923021 h 196.53568067487328 M 466.772241602824 2486.932267001281 h 196.53568067487328 M -663.3079222776973 2486.932267001281 h 196.53568067487328 M 2084.412074849858 506.4573309698658 v 58.58275097039492 M 2084.412074849858 1120.6313330788448 v 58.58275097039492 M 2084.412074849858 1734.8053351878236 v 58.58275097039492 M 2084.412074849858 2348.979337296803 v 58.58275097039492 M -2084.412074849858 2348.979337296803 v 58.58275097039492 M -2084.412074849858 1734.8053351878236 v 58.58275097039492 M -2084.412074849858 1120.6313330788448 v 58.58275097039492 M -2084.412074849858 506.4573309698658 v 58.58275097039492 " fill="none" stroke="green" /></g><g id="tall_balda1"><path d="M 958.1114432900072 2683.4679476761544 a 56.6929848100596 56.6929848100596 0 0 1 0.0 113.3859696201192 v -58.58275097039492 h -15.11812928268256 v 1192.442447171587 h -304.25235181398654 v 15.11812928268256 h 22.67719392402384 v 11.33859696201192 l -7.55906464134128 7.55906464134128 h -177.6380190715201 l -7.55906464134128 -7.55906464134128 v -11.33859696201192 h 22.67719392402384 v -15.11812928268256 h -982.6784033743663 v 15.11812928268256 h 22.67719392402384 v 11.33859696201192 l -7.55906464134128 7.55906464134128 h -177.6380190715201 l -7.55906464134128 -7.55906464134128 v -11.33859696201192 h 22.67719392402384 v -15.11812928268256 h -304.25235181398654 v -1192.442447171587 h -15.11812928268256 v 58.58275097039492 a 56.6929848100596 56.6929848100596 0 0 1 0.0 -113.3859696201192 z" fill="none" stroke="blue" /></g><g id="tall_balda2"><path d="M 958.1114432900072 4078.1153740036207 a 56.6929848100596 56.6929848100596 0 0 1 0.0 113.3859696201192 v -58.58275097039492 h -15.11812928268256 v 1192.442447171587 h -304.25235181398654 v 15.11812928268256 h 22.67719392402384 v 11.33859696201192 l -7.55906464134128 7.55906464134128 h -177.6380190715201 l -7.55906464134128 -7.55906464134128 v -11.33859696201192 h 22.67719392402384 v -15.11812928268256 h -982.6784033743663 v 15.11812928268256 h 22.67719392402384 v 11.33859696201192 l -7.55906464134128 7.55906464134128 h -177.6380190715201 l -7.55906464134128 -7.55906464134128 v -11.33859696201192 h 22.67719392402384 v -15.11812928268256 h -304.25235181398654 v -1192.442447171587 h -15.11812928268256 v 58.58275097039492 a 56.6929848100596 56.6929848100596 0 0 1 0.0 -113.3859696201192 z" fill="none" stroke="blue" /></g><g id="tall_balda3"><path d="M 958.1114432900072 5472.7628003310865 a 56.6929848100596 56.6929848100596 0 0 1 0.0 113.3859696201192 v -58.58275097039492 h -15.11812928268256 v 1192.442447171587 h -304.25235181398654 v 15.11812928268256 h 22.67719392402384 v 11.33859696201192 l -7.55906464134128 7.55906464134128 h -177.6380190715201 l -7.55906464134128 -7.55906464134128 v -11.33859696201192 h 22.67719392402384 v -15.11812928268256 h -982.6784033743663 v 15.11812928268256 h 22.67719392402384 v 11.33859696201192 l -7.55906464134128 7.55906464134128 h -177.6380190715201 l -7.55906464134128 -7.55906464134128 v -11.33859696201192 h 22.67719392402384 v -15.11812928268256 h -304.25235181398654 v -1192.442447171587 h -15.11812928268256 v 58.58275097039492 a 56.6929848100596 56.6929848100596 0 0 1 0.0 -113.3859696201192 z" fill="none" stroke="blue" /></g><g id="tall_balda4"><path d="M 958.1114432900072 6867.410226658552 a 56.6929848100596 56.6929848100596 0 0 1 0.0 113.3859696201192 v -58.58275097039492 h -15.11812928268256 v 1192.442447171587 h -304.25235181398654 v 15.11812928268256 h 22.67719392402384 v 11.33859696201192 l -7.55906464134128 7.55906464134128 h -177.6380190715201 l -7.55906464134128 -7.55906464134128 v -11.33859696201192 h 22.67719392402384 v -15.11812928268256 h -982.6784033743663 v 15.11812928268256 h 22.67719392402384 v 11.33859696201192 l -7.55906464134128 7.55906464134128 h -177.6380190715201 l -7.55906464134128 -7.55906464134128 v -11.33859696201192 h 22.67719392402384 v -15.11812928268256 h -304.25235181398654 v -1192.442447171587 h -15.11812928268256 v 58.58275097039492 a 56.6929848100596 56.6929848100596 0 0 1 0.0 -113.3859696201192 z" fill="none" stroke="blue" /></g><g id="tall_silueta_ppal"><path d="M 1225.8505784668118 0.0 Q 1307.92220727129 0.0 1362.8270507372633 28.16561566476642 L 2042.5790138815178 365.68031013305847 Q 2137.325527339247 411.7539276177771 2137.325527339247 475.8607201164441 V 2570.081978056035 H -2137.325527339247 V 475.8607201164441 Q -2137.325527339247 411.7539276177771 -2042.5790138815178 365.68031013305847 L -1362.8270507372633 28.16561566476642 Q -1307.92220727129 0.0 -1225.8505784668118 0.0 Z " fill="none" stroke="blue" /></g></svg>