<?xml version="1.0" encoding="utf-8" ?>
<svg baseProfile="tiny" height="0" version="1.2" width="0" xmlns="http://www.w3.org/2000/svg" xmlns:ev="http://www.w3.org/2001/xml-events" xmlns:xlink="http://www.w3.org/1999/xlink"><defs /><g id="corona"><path d="M 754.9615810539603 5888.511355604857 h -1509.9231621079207 " fill="none" stroke="blue" /></g><g id="hendit_balda1"><path d="M 754.9615810539603 2872.4445637096865 h -1509.9231621079207 " fill="none" stroke="red" /></g><g id="hendit_balda2"><path d="M 754.9615810539603 3877.8001610080764 h -1509.9231621079207 " fill="none" stroke="red" /></g><g id="hendit_balda3"><path d="M 754.9615810539603 4883.155758306467 h -1509.9231621079207 " fill="none" stroke="red" /></g><g id="hendit_balda4"><path d="M 754.9615810539603 5888.511355604857 h -1509.9231621079207 " fill="none" stroke="red" /></g><g id="hendit_ppal"><path d="M 759.6859964547987 0.0 V 2645.672624469448 M -759.6859964547987 2645.672624469448 V 0.0 " fill="none" stroke="red" /></g><g id="incisions"><path d="M -539.3077660570281 687.8748823620565 h 190.8663821938673 v -9.4488308016766 h 15.11812928268256 v -13.22836312234724 h -0.377953232067064 v 12.850409890280176 h -220.3467342950983 v -12.850409890280176 h -0.377953232067064 v 13.22836312234724 h 15.11812928268256 z M 348.4413838631608 687.8748823620565 h 190.8663821938673 v -9.4488308016766 h 15.11812928268256 v -13.22836312234724 h -0.377953232067064 v 12.850409890280176 h -220.3467342950983 v -12.850409890280176 h -0.377953232067064 v 13.22836312234724 h 15.11812928268256 z M 348.4413838631608 1330.3953768760653 h 190.8663821938673 v -9.4488308016766 h 15.11812928268256 v -13.22836312234724 h -0.377953232067064 v 12.850409890280176 h -220.3467342950983 v -12.850409890280176 h -0.377953232067064 v 13.22836312234724 h 15.11812928268256 z M -539.3077660570281 1330.3953768760653 h 190.8663821938673 v -9.4488308016766 h 15.11812928268256 v -13.22836312234724 h -0.377953232067064 v 12.850409890280176 h -220.3467342950983 v -12.850409890280176 h -0.377953232067064 v 13.22836312234724 h 15.11812928268256 z M 348.4413838631608 1972.915871390074 h 190.8663821938673 v -9.4488308016766 h 15.11812928268256 v -13.22836312234724 h -0.377953232067064 v 12.850409890280176 h -220.3467342950983 v -12.850409890280176 h -0.377953232067064 v 13.22836312234724 h 15.11812928268256 z M -539.3077660570281 1972.915871390074 h 190.8663821938673 v -9.4488308016766 h 15.11812928268256 v -13.22836312234724 h -0.377953232067064 v 12.850409890280176 h -220.3467342950983 v -12.850409890280176 h -0.377953232067064 v 13.22836312234724 h 15.11812928268256 z M 348.4413838631608 2615.436365904083 h 190.8663821938673 v -9.4488308016766 h 15.11812928268256 v -13.22836312234724 h -0.377953232067064 v 12.850409890280176 h -220.3467342950983 v -12.850409890280176 h -0.377953232067064 v 13.22836312234724 h 15.11812928268256 z M -539.3077660570281 2615.436365904083 h 190.8663821938673 v -9.4488308016766 h 15.11812928268256 v -13.22836312234724 h -0.377953232067064 v 12.850409890280176 h -220.3467342950983 v -12.850409890280176 h -0.377953232067064 v 13.22836312234724 h 15.11812928268256 z M 1515.5924605889265 514.9612786913747 h 9.4488308016766 v 115.27573578045451 h -9.4488308016766 v -57.637867890227255 h 9.070877569609536 v -57.2599146581602 h -9.070877569609536 z M 1515.5924605889265 1157.4817732053834 h 9.4488308016766 v 115.27573578045451 h -9.4488308016766 v -57.637867890227255 h 9.070877569609536 v -57.2599146581602 h -9.070877569609536 z M 1515.5924605889265 1800.0022677193922 h 9.4488308016766 v 115.27573578045451 h -9.4488308016766 v -57.637867890227255 h 9.070877569609536 v -57.2599146581602 h -9.070877569609536 z M 1515.5924605889265 2442.522762233401 h 9.4488308016766 v 115.27573578045451 h -9.4488308016766 v -57.637867890227255 h 9.070877569609536 v -57.2599146581602 h -9.070877569609536 z M -1515.5924605889265 2442.522762233401 h -9.4488308016766 v 115.27573578045451 h 9.4488308016766 v -57.637867890227255 h -9.070877569609536 v -57.2599146581602 h 9.070877569609536 z M -1515.5924605889265 1800.0022677193922 h -9.4488308016766 v 115.27573578045451 h 9.4488308016766 v -57.637867890227255 h -9.070877569609536 v -57.2599146581602 h 9.070877569609536 z M -1515.5924605889265 1157.4817732053834 h -9.4488308016766 v 115.27573578045451 h 9.4488308016766 v -57.637867890227255 h -9.070877569609536 v -57.2599146581602 h 9.070877569609536 z M -1515.5924605889265 514.9612786913747 h -9.4488308016766 v 115.27573578045451 h 9.4488308016766 v -57.637867890227255 h -9.070877569609536 v -57.2599146581602 h 9.070877569609536 z " fill="none" stroke="blue" /></g><g id="semitall"><path d="M -554.4258953397106 665.1976884380326 h 221.10264075923243 M 333.32325458047825 665.1976884380326 h 221.10264075923243 M 333.32325458047825 1307.7181829520414 h 221.10264075923243 M -554.4258953397106 1307.7181829520414 h 221.10264075923243 M 333.32325458047825 1950.2386774660501 h 221.10264075923243 M -554.4258953397106 1950.2386774660501 h 221.10264075923243 M 333.32325458047825 2592.759171980059 h 221.10264075923243 M -554.4258953397106 2592.759171980059 h 221.10264075923243 M 1515.5924605889265 514.9612786913747 v 57.637867890227255 M 1515.5924605889265 1157.4817732053834 v 57.637867890227255 M 1515.5924605889265 1800.0022677193922 v 57.637867890227255 M 1515.5924605889265 2442.522762233401 v 57.637867890227255 M -1515.5924605889265 2442.522762233401 v 57.637867890227255 M -1515.5924605889265 1800.0022677193922 v 57.637867890227255 M -1515.5924605889265 1157.4817732053834 v 57.637867890227255 M -1515.5924605889265 514.9612786913747 v 57.637867890227255 " fill="none" stroke="green" /></g><g id="tall_balda1"><path d="M 764.4104118556369 2759.058594089567 a 56.6929848100596 56.6929848100596 0 0 1 0.0 113.3859696201192 v -57.637867890227255 h -9.4488308016766 v 813.5443320243553 h -216.5986980770999 v 9.4488308016766 h 15.11812928268256 v 7.55906464134128 l -5.66929848100596 5.66929848100596 h -207.8742776368852 l -5.66929848100596 -5.66929848100596 v -7.55906464134128 h 15.11812928268256 v -9.4488308016766 h -698.7725338866569 v 9.4488308016766 h 15.11812928268256 v 7.55906464134128 l -5.66929848100596 5.66929848100596 h -207.8742776368852 l -5.66929848100596 -5.66929848100596 v -7.55906464134128 h 15.11812928268256 v -9.4488308016766 h -216.5986980770999 v -813.5443320243553 h -9.4488308016766 v 57.637867890227255 a 56.6929848100596 56.6929848100596 0 0 1 0.0 -113.3859696201192 z" fill="none" stroke="blue" /></g><g id="tall_balda2"><path d="M 764.4104118556369 3764.4141913879575 a 56.6929848100596 56.6929848100596 0 0 1 0.0 113.3859696201192 v -57.637867890227255 h -9.4488308016766 v 813.5443320243553 h -216.5986980770999 v 9.4488308016766 h 15.11812928268256 v 7.55906464134128 l -5.66929848100596 5.66929848100596 h -207.8742776368852 l -5.66929848100596 -5.66929848100596 v -7.55906464134128 h 15.11812928268256 v -9.4488308016766 h -698.7725338866569 v 9.4488308016766 h 15.11812928268256 v 7.55906464134128 l -5.66929848100596 5.66929848100596 h -207.8742776368852 l -5.66929848100596 -5.66929848100596 v -7.55906464134128 h 15.11812928268256 v -9.4488308016766 h -216.5986980770999 v -813.5443320243553 h -9.4488308016766 v 57.637867890227255 a 56.6929848100596 56.6929848100596 0 0 1 0.0 -113.3859696201192 z" fill="none" stroke="blue" /></g><g id="tall_balda3"><path d="M 764.4104118556369 4769.769788686348 a 56.6929848100596 56.6929848100596 0 0 1 0.0 113.3859696201192 v -57.637867890227255 h -9.4488308016766 v 813.5443320243553 h -216.5986980770999 v 9.4488308016766 h 15.11812928268256 v 7.55906464134128 l -5.66929848100596 5.66929848100596 h -207.8742776368852 l -5.66929848100596 -5.66929848100596 v -7.55906464134128 h 15.11812928268256 v -9.4488308016766 h -698.7725338866569 v 9.4488308016766 h 15.11812928268256 v 7.55906464134128 l -5.66929848100596 5.66929848100596 h -207.8742776368852 l -5.66929848100596 -5.66929848100596 v -7.55906464134128 h 15.11812928268256 v -9.4488308016766 h -216.5986980770999 v -813.5443320243553 h -9.4488308016766 v 57.637867890227255 a 56.6929848100596 56.6929848100596 0 0 1 0.0 -113.3859696201192 z" fill="none" stroke="blue" /></g><g id="tall_balda4"><path d="M 764.4104118556369 5775.1253859847375 a 56.6929848100596 56.6929848100596 0 0 1 0.0 113.3859696201192 v -57.637867890227255 h -9.4488308016766 v 813.5443320243553 h -216.5986980770999 v 9.4488308016766 h 15.11812928268256 v 7.55906464134128 l -5.66929848100596 5.66929848100596 h -207.8742776368852 l -5.66929848100596 -5.66929848100596 v -7.55906464134128 h 15.11812928268256 v -9.4488308016766 h -698.7725338866569 v 9.4488308016766 h 15.11812928268256 v 7.55906464134128 l -5.66929848100596 5.66929848100596 h -207.8742776368852 l -5.66929848100596 -5.66929848100596 v -7.55906464134128 h 15.11812928268256 v -9.4488308016766 h -216.5986980770999 v -813.5443320243553 h -9.4488308016766 v 57.637867890227255 a 56.6929848100596 56.6929848100596 0 0 1 0.0 -113.3859696201192 z" fill="none" stroke="blue" /></g><g id="tall_corona"><path d="M 679.3709346405475 -813.7175099522318 a 75.5906464134128 75.5906464134128 0 0 1 75.5906464134128 75.5906464134128 v 624.7408939186997 h -210.92939959609393 q -7.55906464134128 0.0 -7.55906464134128 -7.55906464134128 v -110.72449830749275 q 0.0 -7.55906464134128 -7.55906464134128 -7.55906464134128 h -86.92924337542472 q -6.576386237966913 0.0 -7.181111409274216 3.77953232067064 L 349.95319679142904 -117.92140840492397 Q 348.4413838631608 -113.3859696201192 343.905945078356 -113.3859696201192 H -343.905945078356 Q -348.4413838631608 -113.3859696201192 -349.95319679142904 -117.92140840492397 l -85.03947721508939 -117.5276564846999 q -0.377953232067064 -3.77953232067064 -7.181111409274216 -3.77953232067064 h -86.92924337542472 q -7.55906464134128 0.0 -7.55906464134128 7.55906464134128 v 110.72449830749275 q 0.0 7.55906464134128 -7.55906464134128 7.55906464134128 h -210.92939959609393 v -624.7408939186997 a 75.5906464134128 75.5906464134128 0 0 1 75.5906464134128 -75.5906464134128 Z" fill="none" stroke="blue" /></g><g id="tall_silueta_ppal"><path d="M 942.9258810471313 0.0 Q 997.5531753787745 0.0 1034.0981189596293 28.638545778540482 L 1486.544489332716 371.8204645942478 Q 1549.6082514749623 418.66770625315024 1549.6082514749623 483.8509187751158 V 2645.672624469448 H -1549.6082514749623 V 483.8509187751158 Q -1549.6082514749623 418.66770625315024 -1486.544489332716 371.8204645942478 L -1034.0981189596293 28.638545778540482 Q -997.5531753787745 0.0 -942.9258810471313 0.0 Z " fill="none" stroke="blue" /></g></svg>