<?xml version="1.0" encoding="utf-8" ?>
<svg baseProfile="tiny" height="0" version="1.2" width="0" xmlns="http://www.w3.org/2000/svg" xmlns:ev="http://www.w3.org/2001/xml-events" xmlns:xlink="http://www.w3.org/1999/xlink"><defs /><g id="hendit"><path d="M 1011.9678664769344 1172.125245905357 L 484.72410411080057 1172.125245905357 M 334.4879779918252 795.5581585278996 H 14.173219412775172 M -122.00460532357613 737.0074103260407 L -433.58559559598234 737.0074103260407 M -569.7634202813101 795.5581585278996 H -986.4560709568113 M -986.4560709568113 920.2824894102109 H -569.7634202813101 M 14.173219412775172 920.2824894102109 H 334.4879779918252 M 470.5508844088917 1197.637040858557 L 1026.1410858897098 1197.637040858557 M 456.3776647069829 1193.3850750330237 L 14.173219418444491 1193.3850750330237 M -4.251965825533338 1184.881143381957 L -551.3382350940251 1184.881143381957 M -569.7634203408376 1193.3850750330237 L -1011.9678664769344 1193.3850750330237 M -1026.1410858953782 1193.3850750330237 L -1026.1410858953782 1957.32160168718 M -1021.8891200698449 1957.32160168718 L -559.8421667450918 1957.32160168718 M -551.338235377206 1953.0696358616467 L -4.251965825533338 1953.0696358616467 M 4.251965825533338 1957.32160168718 L 466.2989185833584 1957.32160168718 M 474.8028502344251 1961.5735675127132 L 1021.8891200698449 1961.5735675127132 M 470.5508844088917 1957.32160168718 L 470.5508844088917 1197.637040858557 M 0.0 1193.3850750330237 L 0.0 1953.0696358616467 M -555.5902009195585 1953.0696358616467 L -555.5902009195585 1193.3850750330237 " fill="none" stroke="red" /></g><g id="hendit1"><path d="M -935.4324816173344 0.0 h 510.2358990640006 v -566.9287767377784 M 0.0 -566.9287767377784 v 566.9287767377784 h 510.2358990640006 v -566.9287767377784 " fill="none" stroke="red" /></g><g id="hendit_reves"><path d="M 1011.9678664769344 605.1964691675785 L 1011.9678664769344 1047.4009150230456 L 484.72410411080057 1047.4009150230456 L 484.72410411080057 605.1964691675785 Z " fill="none" stroke="green" /></g><g id="tall"><path d="M -433.58559559598234 737.0074103260407 L -447.75881501442683 709.7948290426274 L -437.1289004505935 660.4312065945155 q 5.589917738351031 -29.004076220739385 33.64722290222179 -29.004076220739385 H -151.1163980062264 q 29.111792682650275 0.0 33.64722290222179 29.004076220739385 L -107.83138590513167 709.7948290426274 L -122.00460532357613 737.0074103260407 M -118.46130046896502 728.503478674974 H -21.25982912766669 q 17.00786330213335 0.0 17.00786330213335 17.00786330213335 L -4.251965825533338 1184.881143381957 A 9.212592619154256 9.212592619154256 0 0 0 14.173219418444491 1184.881143381957 V 573.4791628114871 q 0.0 -34.0157266042667 34.0157266042667 -34.0157266042667 H 300.47225138755846 q 34.0157266042667 0.0 34.0157266042667 34.0157266042667 V 1024.2928980860484 q 0.0 23.108016936997206 23.108016936997206 23.108016936997206 H 442.20444585546716 q 14.173219421279105 0.0 14.173219421279105 14.173219421279105 V 1189.9324787826904 A 9.212592619154256 9.212592619154256 0 0 0 470.5508844088917 1197.637040858557 L 484.72410411080057 1172.125245905357 L 484.72410411080057 1047.4009150230456 L 383.1077898848568 1009.4576698433575 q -23.108016936997206 -7.902987147441167 -23.108016936997206 -32.21856238484259 L 359.9997729478596 667.2684080509556 q 0.0 -15.046289731785995 23.108016936997206 -23.714630733775913 L 484.72410411080057 605.1964691675785 L 519.0045110364025 503.5801552248156 Q 526.7997817193816 480.4721382852672 551.2230734212451 480.4721382852672 L 945.4688966026793 480.4721382852672 Q 969.892188307094 480.4721382852672 977.6874589815693 503.5801552248156 L 1011.9678664769344 605.1964691675785 L 1113.5841804222484 644.477871228648 Q 1136.6921973592457 652.2731419090759 1136.6921973592457 667.2684080509556 L 1136.6921973592457 977.2390791149107 Q 1136.6921973592457 1001.6623708167743 1113.5841804222484 1009.4576698433575 L 1011.9678664769344 1047.4009150230456 L 1011.9678664769344 1172.125245905357 L 1026.1410858897098 1197.637040858557 V 1961.5735675127132 L 1021.8891200698449 1961.5735675127132 L 873.0703161705095 2186.3203325887666 L 873.0703161705095 2237.9513461723805 q 0.0 34.0157266042667 -34.0157266042667 34.0157266042667 L 657.6373807323586 2271.967072776647 q -34.0157266042667 0.0 -34.0157266042667 -34.0157266042667 L 623.6216541280919 2186.3203325887666 L 474.8028502344251 1961.5735675127132 A 4.535430213618763 4.535430213618763 1 0 0 466.2989185833584 1963.7562433034373 L 466.2989185833584 2227.017719778444 L 238.926058728152 2227.017719778444 A 21.867252818486413 21.867252818486413 0 0 1 219.0086359517884 2196.1557369620555 L 250.1755454308375 2114.146249828504 A 8.503931651066676 8.503931651066676 0 0 0 242.26688899534548 2102.64326494566 A 308.2887821802947 308.2887821802947 0 0 1 4.251965825533338 1957.32160168718 A 4.251965825533338 2.9763760778733364 20 0 0 -4.251965825533338 1956.550578550788 L -4.251965825533338 2257.793853355368 q 0.0 34.0157266042667 -34.0157266042667 34.0157266042667 L -517.3225087729394 2291.8095799596344 q -34.0157266042667 0.0 -34.0157266042667 -34.0157266042667 L -551.338235377206 1956.550578550788 A 4.251965825533338 2.9763760778733364 -20 0 0 -559.8421667450918 1957.32160168718 A 308.2887821802947 308.2887821802947 0 0 1 -797.857089914904 2102.64326494566 A 8.503931651066676 8.503931651066676 0 0 0 -805.765746350396 2114.146249828504 L -774.5988368713467 2196.1557369620555 A 21.867252818486413 21.867252818486413 0 0 1 -794.5162596477104 2227.017719778444 L -1021.8891200698449 2227.017719778444 L -1021.8891200698449 1957.32160168718 L -1026.1410858953782 1957.32160168718 L -1139.5268412429339 1923.3058750829132 L -1139.5268412429339 1227.4008016372902 L -1026.1410858953782 1193.3850750330237 L -1011.9678664769344 1193.3850750330237 L -1011.9678664769344 1054.487524732268 L -986.4560709568113 1037.4796614301345 V 496.94377795188706 q 0.0 -34.0157266042667 34.0157266042667 -34.0157266042667 H -603.7791468855768 q 34.0157266042667 0.0 34.0157266042667 34.0157266042667 V 1184.881143381957 A 9.212592619154256 9.212592619154256 0 0 0 -551.3382350940251 1184.881143381957 V 745.5113419771073 q 0.0 -17.00786330213335 17.00786330213335 -17.00786330213335 H -437.1289004505935 M 716.4562416023675 596.6925375165118 a 32.59840466242226 32.59840466242226 0 0 0 63.779487383000074 0.0 M 586.8862019650901 1184.881143381957 q 0.0 -14.17321941844446 14.17321941844446 -14.17321941844446 H 895.6325483538075 q 14.17321941844446 0.0 14.17321941844446 14.17321941844446 q 0.0 14.17321941844446 -14.17321941844446 14.17321941844446 H 601.0594213835345 q -14.17321941844446 0.0 -14.17321941844446 -14.17321941844446 M -160.35985399372976 2177.8164009377 Q -142.13714330995697 2177.8164009377 -145.7816854446706 2193.861497694017 L -149.7433027490943 2211.619529254942 Q -153.07076971920017 2226.4102960927266 -169.7299718236398 2226.4102960927266 L -385.86022909591867 2226.4102960927266 Q -402.5194312003583 2226.4102960927266 -405.84689817046416 2211.619529254942 L -409.8085154748879 2193.861497694017 Q -413.4530576096015 2177.8164009377 -395.2303469258287 2177.8164009377 Z" fill="none" stroke="blue" /></g><g id="tall1"><path d="M 926.9285499662677 -566.9287767377784 V 0.0 H 518.7398307150672 c -4.696592758051808 0.0 -8.500620220081752 3.8040276321085753 -8.500620220081752 8.500620220081752 0.0 3.7083956482547067 2.358922041623908 6.874877118187638 5.674163921786509 8.022460584276795 c 1.6477576266093659 0.5715991360005445 2.826456298295242 2.2739161739110743 2.826456298295242 4.016542981705209 V 216.85025710220023 H -8.503931651066676 V 20.534160293442277 c 0.001721762694952636 -1.74275833527034 1.1733384734875756 -3.44079052548628 2.826456298295242 -4.016542981705209 c 1.225047480285052 -0.42373957559711806 2.346381010153694 -1.1387864322605123 3.2519000617952365 -2.0658300687684634 2.4298385953772628 -2.4167601154267015 3.1118879295194146 -6.353288470369465 1.6716308840120386 -9.455732500325984 -1.3140031407854202 -2.992639393612983 -4.478422123828583 -5.045249250236689 -7.749987244102527 -5.00151783841396 H -416.69265090226713 c -4.696592758051808 0.0 -8.500620220081752 3.8040276321085753 -8.500620220081752 8.500620220081752 0.0 3.7083956482547067 2.358922041623908 6.874877118187638 5.674163921786509 8.022460584276795 c 1.6477576266093659 0.5715991360005445 2.826456298295242 2.2739161739110743 2.826456298295242 4.016542981705209 V 216.85025710220023 H -943.9364132684011 V 20.534160293442277 c 0.001721762694952636 -1.74275833527034 1.1733384734875756 -3.44079052548628 2.826456298295242 -4.016542981705209 c 1.225047480285052 -0.42373957559711806 2.346381010153694 -1.1387864322605123 3.2519000617952365 -2.0658300687684634 1.5748873229056233 -1.5664106038358403 2.41554291934304 -3.7712640810934923 2.4199927433116577 -5.973651418172335 L -935.4324816173344 0.0 V -566.9287767377784 Z " fill="none" stroke="blue" /></g></svg>