<?xml version="1.0" encoding="utf-8" ?>
<svg baseProfile="tiny" height="0" version="1.2" width="0" xmlns="http://www.w3.org/2000/svg" xmlns:ev="http://www.w3.org/2001/xml-events" xmlns:xlink="http://www.w3.org/1999/xlink"><defs /><g id="hendit"><path d="M 1109.2927361168329 1363.4662846819333 L 568.8196142609313 1363.4662846819333 M 394.96112732110544 945.8279935769784 H 9.448830797897067 M -122.83480077488072 827.7175786048233 L -436.5359824953973 827.7175786048233 M -568.8196140341593 945.8279935769784 H -1092.2848402958655 M -1092.2848402958655 1102.67858488481 H -568.8196140341593 M 9.448830797897067 1102.67858488481 H 394.96112732110544 M 559.370783270278 1380.4741801249513 L 1118.74156691473 1380.4741801249513 M 549.9219522796249 1377.6395308844483 L 9.44883080167662 1377.6395308844483 M -2.83464924050298 1371.9702324034422 L -556.5361340297751 1371.9702324034422 M -568.8196140738444 1377.6395308844483 L -1109.2927361168329 1377.6395308844483 M -1118.741566918509 1377.6395308844483 L -1118.741566918509 2149.6090073814266 M -1115.906917678006 2149.6090073814266 L -562.2054325107811 2149.6090073814266 M -556.5361342185628 2146.7743581409236 L -2.83464924050298 2146.7743581409236 M 2.83464924050298 2149.6090073814266 L 556.5361340297751 2149.6090073814266 M 562.2054325107811 2152.443656621929 L 1115.906917678006 2152.443656621929 M 559.370783270278 2149.6090073814266 L 559.370783270278 1380.4741801249513 M 0.0 1377.6395308844483 L 0.0 2146.7743581409236 M -559.370783270278 2146.7743581409236 L -559.370783270278 1377.6395308844483 " fill="none" stroke="red" /></g><g id="hendit1"><path d="M -1058.2690497877793 0.0 h 529.1345248938896 v -566.929848100596 M 0.0 -566.929848100596 v 566.929848100596 h 529.1345248938896 v -566.929848100596 " fill="none" stroke="red" /></g><g id="hendit_reves"><path d="M 1109.2927361168329 666.1425715182003 L 1109.2927361168329 1206.6156933741017 L 568.8196142609313 1206.6156933741017 L 568.8196142609313 666.1425715182003 Z " fill="none" stroke="green" /></g><g id="tall"><path d="M -436.5359824953973 827.7175786048233 L -445.9848132970739 805.0403846807995 L -438.8981901958165 763.9039549026203 q 3.7266188679922743 -19.33608735444076 22.43152432507001 -19.33608735444076 H -142.24269923963467 q 19.40789846475397 0.0 22.43152432507001 19.33608735444076 L -113.38596997320413 805.0403846807995 L -122.83480077488072 827.7175786048233 M -120.47259307446157 822.0482801238174 H -14.1732462025149 q 11.33859696201192 0.0 11.33859696201192 11.33859696201192 L -2.83464924050298 1371.9702324034422 A 6.141740019200023 6.141740019200023 0 0 0 9.44883080167662 1371.9702324034422 V 704.882838463376 q 0.0 -22.67719392402384 22.67719392402384 -22.67719392402384 H 372.28393339708157 q 22.67719392402384 0.0 22.67719392402384 22.67719392402384 V 1191.210319636938 q 0.0 15.405373737163764 15.405373737163764 15.405373737163764 H 540.4731218559015 q 9.448830803566366 0.0 9.448830803566366 9.448830803566366 V 1375.3377957011598 A 6.141740019200023 6.141740019200023 0 0 0 559.370783270278 1380.4741801249513 L 568.8196142609313 1363.4662846819333 L 568.8196142609313 1206.6156933741017 L 427.37439650317657 1158.8990978993359 q -15.405373737163764 -5.268668054825896 -15.405373737163764 -21.479082180261013 L 411.9690227660128 735.3420287703669 q 0.0 -10.030878777170111 15.405373737163764 -15.809783699255053 L 568.8196142609313 666.1425715182003 L 616.5362096219333 524.6973539492333 Q 621.7330665647452 509.2919802103687 638.0152918021943 509.2919802103687 L 1040.0970581996953 509.2919802103687 Q 1056.379283438845 509.2919802103687 1061.5761403759877 524.6973539492333 L 1109.2927361168329 666.1425715182003 L 1250.7379536875005 720.1483088429718 Q 1266.1433274246644 725.3451657840828 1266.1433274246644 735.3420287703669 L 1266.1433274246644 1137.419996823303 Q 1266.1433274246644 1153.7022220607523 1250.7379536875005 1158.8990978993359 L 1109.2927361168329 1206.6156933741017 L 1109.2927361168329 1363.4662846819333 L 1118.74156691473 1380.4741801249513 V 2152.443656621929 L 1115.906917678006 2152.443656621929 L 960.001209446563 2432.129048366675 L 960.001209446563 2496.381097802958 q 0.0 22.67719392402384 -22.67719392402384 22.67719392402384 L 740.7883346624687 2519.0582917269817 q -22.67719392402384 0.0 -22.67719392402384 -22.67719392402384 L 718.1111407384449 2432.129048366675 L 562.2054325107811 2152.443656621929 A 3.0236258563475356 3.0236258563475356 1 0 0 556.5361340297751 2153.8987765655766 L 556.5361340297751 2429.294399126172 L 284.2283895885223 2429.294399126172 A 22.677193925535654 22.677193925535654 0 0 1 263.5732454537895 2397.289319427174 L 298.2277772740501 2312.2422831625613 A 5.66929848100596 5.66929848100596 0 0 0 292.95532968671455 2304.573612082031 A 349.2552431562118 349.2552431562118 0 0 1 2.83464924050298 2149.6090073814266 A 2.83464924050298 1.9842544683520855 20 0 0 -2.83464924050298 2149.0949909857964 L -2.83464924050298 2509.609460923415 q 0.0 22.67719392402384 -22.67719392402384 22.67719392402384 L -533.8589402945389 2532.286654847439 q -22.67719392402384 0.0 -22.67719392402384 -22.67719392402384 L -556.5361342185628 2149.0949909857964 A 2.83464924050298 1.9842544683520855 -20 0 0 -562.2054325107811 2149.6090073814266 A 349.2552431562118 349.2552431562118 0 0 1 -852.3261129569926 2304.573612082031 A 5.66929848100596 5.66929848100596 0 0 0 -857.598560544328 2312.2422831625613 L -822.9440287240675 2397.289319427174 A 22.677193925535654 22.677193925535654 0 0 1 -843.5991728588003 2429.294399126172 L -1115.906917678006 2429.294399126172 L -1115.906917678006 2149.6090073814266 L -1118.741566918509 2149.6090073814266 L -1213.229874935275 2121.2625149763967 L -1213.229874935275 1405.986023289478 L -1118.741566918509 1377.6395308844483 L -1109.2927361168329 1377.6395308844483 L -1109.2927361168329 1266.1433274246644 L -1092.2848402958655 1254.8047304626525 V 653.8591521343224 q 0.0 -22.67719392402384 22.67719392402384 -22.67719392402384 H -591.4968079581831 q 22.67719392402384 0.0 22.67719392402384 22.67719392402384 V 1371.9702324034422 A 6.141740019200023 6.141740019200023 0 0 0 -556.5361340297751 1371.9702324034422 V 833.3868770858293 q 0.0 -11.33859696201192 11.33859696201192 -11.33859696201192 H -438.8981901958165 M 796.5364365813374 660.4732730371943 a 43.46462168771236 43.46462168771236 0 0 0 85.03947721508939 0.0 M 678.426051724488 1371.9702324034422 q 0.0 -9.4488308016766 9.4488308016766 -9.4488308016766 H 990.2374672846694 q 9.4488308016766 0.0 9.4488308016766 9.4488308016766 q 0.0 9.4488308016766 -9.4488308016766 9.4488308016766 H 687.8748825261647 q -9.4488308016766 0.0 -9.4488308016766 -9.4488308016766 M -166.29942211177587 2426.4597498856688 Q -147.40176050539904 2426.4597498856688 -151.1812928245579 2446.4270191380397 L -155.28964445962137 2468.5259446200243 Q -158.74035746816688 2486.932267023958 -176.01659970595236 2486.932267023958 L -383.3541835643257 2486.932267023958 Q -400.6304258021112 2486.932267023958 -404.0811388106567 2468.5259446200243 L -408.18949044572014 2446.4270191380397 Q -411.969022764879 2426.4597498856688 -393.0713611585022 2426.4597498856688 Z" fill="none" stroke="blue" /></g><g id="tall1"><path d="M 1052.5997513067732 -566.929848100596 V 0.0 H 534.8038233748955 c -3.131067755675914 0.0 -5.667090856177456 2.5360232138875114 -5.667090856177456 5.667090856177456 0.0 2.472268437503541 1.5726176662899713 4.583260073398515 3.782783096419651 5.34831716323422 c 1.0985071603239793 0.38106681079283267 1.8843077597578055 1.5159469807206074 1.8843077597578055 2.677700381354811 V 267.40191168744775 H -5.66929848100596 V 13.68946606546902 c 0.0011478439657876753 -1.1618410857840449 0.7822271272152782 -2.2938646851838533 1.8843077597578055 -2.677700381354811 c 0.8166998635588832 -0.2824935842438859 1.5642569628434175 -0.7591923895337173 2.1679374714172868 -1.37722264846948 1.61989545813601 -1.6111764550254568 2.0745958735066123 -4.2355336510660155 1.114422695335677 -6.3038335796328555 -0.8760037492960602 -1.9950966993344261 -2.9856203913327763 -3.363505856385329 -5.166667926510775 -3.334351526742081 H -523.4652264128837 c -3.131067755675914 0.0 -5.667090856177456 2.5360232138875114 -5.667090856177456 5.667090856177456 0.0 2.472268437503541 1.5726176662899713 4.583260073398515 3.782783096419651 5.34831716323422 c 1.0985071603239793 0.38106681079283267 1.8843077597578055 1.5159469807206074 1.8843077597578055 2.677700381354811 V 267.40191168744775 H -1063.9383482687851 V 13.68946606546902 c 0.0011478439657876753 -1.1618410857840449 0.7822271272152782 -2.2938646851838533 1.8843077597578055 -2.677700381354811 c 0.8166998635588832 -0.2824935842438859 1.5642569628434175 -0.7591923895337173 2.1679374714172868 -1.37722264846948 1.049926866049595 -1.0442757093237283 1.6103649894362053 -2.514180805267156 1.6133315443547014 -3.9824418046510925 L -1058.2690497877793 0.0 V -566.929848100596 Z " fill="none" stroke="blue" /></g></svg>