<?xml version="1.0" encoding="utf-8" ?>
<svg baseProfile="tiny" height="0" version="1.2" width="0" xmlns="http://www.w3.org/2000/svg" xmlns:ev="http://www.w3.org/2001/xml-events" xmlns:xlink="http://www.w3.org/1999/xlink"><defs /><g id="hendit"><path d="M 9.4488308016766 -188.976616033532 V 0.0 h 107.98663773344684 m 92.86850845076428 0.0 h 1136.5593621445282 m 92.86850845076428 0.0 h 107.98663773344684 v -188.976616033532 M 1557.1673161163037 0.0 V 130.6638316574707 M 1557.1673161163037 238.65046939091752 V 1696.4700787924503 M 1557.1673161163037 1804.456716525897 V 1935.1205481833676 M 1547.718485314627 2124.0971642168997 V 1935.1205481833676 h -107.98663773344684 m -92.86850845076428 0.0 h -1136.5593621445282 m -92.86850845076428 0.0 h -107.98663773344684 V 2124.0971642168997 M 0.0 1935.1205481833676 V 1804.456716525897 M 0.0 1696.4700787924503 V 238.65046939091752 M 0.0 130.6638316574707 V 0.0 M -200.3152129955439 0.0 V 1935.1205481833676 m -22.67719392402384 -11.33859696201192 h -188.976616033532 m 188.976616033532 -177.6380190715201 V 188.976616033532 M -222.99240691956777 11.33859696201192 h -188.976616033532 M 1969.1363390694034 11.33859696201192 h -188.976616033532 m -22.67719392402384 -11.33859696201192 V 1935.1205481833676 m 22.67719392402384 -11.33859696201192 h 188.976616033532 m -188.976616033532 -177.6380190715201 V 188.976616033532 " fill="none" stroke="red" /></g><g id="punxonat"><path d="M 1885.9866280146493 -45.35438784804768 a 37.7953232067064 37.7953232067064 0 1 1 .005 0 M 1468.9725015965184 -109.60643729944856 a 37.7953232067064 37.7953232067064 0 1 0 0 30.23625856536512 M 1439.7318475811803 0.0 h -92.86850845076428 v 22.67719392402384 h 92.86850845076428 z M 210.30397698588774 0.0 h -92.86850845076428 v 22.67719392402384 h 92.86850845076428 z M 88.19481451978517 -109.60643729944856 a 37.7953232067064 37.7953232067064 0 1 1 0 30.23625856536512 M -328.8193118983457 -45.35438784804768 a 37.7953232067064 37.7953232067064 0 1 1 .005 0 M 0.0 130.6638316574707 v 107.98663773344684 h 22.67719392402384 v -107.98663773344684 z M 0.0 1696.4700787924503 v 107.98663773344684 h 22.67719392402384 v -107.98663773344684 z M -328.8193118983457 1980.4749360314154 a 37.7953232067064 37.7953232067064 0 1 0 .005 0 M 88.19481451978517 2044.7269854828162 a 37.7953232067064 37.7953232067064 0 1 0 0 -30.23625856536512 M 117.43546853512345 1935.1205481833676 h 92.86850845076428 v -22.67719392402384 h -92.86850845076428 z M 1346.863339130416 1935.1205481833676 h 92.86850845076428 v -22.67719392402384 h -92.86850845076428 z M 1468.9725015965184 2044.7269854828162 a 37.7953232067064 37.7953232067064 0 1 1 0 -30.23625856536512 M 1885.9866280146493 1980.4749360314154 a 37.7953232067064 37.7953232067064 0 1 0 .005 0 M 1557.1673161163037 1804.456716525897 v -107.98663773344684 h -22.67719392402384 v 107.98663773344684 z M 1557.1673161163037 238.65046939091752 v -107.98663773344684 h -22.67719392402384 v 107.98663773344684 z " fill="none" stroke="purple" /></g><g id="tall"><path d="M 9.4488308016766 0.0 H -200.3152129955439 l -22.67719392402384 11.33859696201192 V -188.976616033532 h -107.98663773344684 l -7.55906464134128 -11.33859696201192 H -423.84755310377886 V 11.33859696201192 H -401.17035917975505 l 188.976616033532 177.6380190715201 M -222.99240691956777 1746.1439321498356 l -188.976616033532 177.6380190715201 H -423.84755310377886 V 2135.4357611789114 h 85.309443809423 l 7.55906464134128 -11.33859696201192 h 107.98663773344684 V 1923.7819512213557 l 22.67719392402384 11.33859696201192 H 9.4488308016766 M 1547.718485314627 1935.1205481833676 H 1757.4825291118475 l 22.67719392402384 -11.33859696201192 V 2124.0971642168997 h 107.98663773344684 l 7.55906464134128 11.33859696201192 H 1991.8135329934273 V 1923.7819512213557 H 1969.1363390694034 l -188.976616033532 -177.6380190715201 M 1780.1597230358714 188.976616033532 l 188.976616033532 -177.6380190715201 H 1991.8135329934273 V -200.3152129955439 h -85.309443809423 l -7.55906464134128 11.33859696201192 H 1780.1597230358714 V 11.33859696201192 l -22.67719392402384 -11.33859696201192 H 1547.718485314627 M 1780.1597230358714 -188.976616033532 H -222.99240691956777 M -401.17035917975505 11.33859696201192 V 130.6638316574707 l -15.11812928268256 9.4488308016766 V 229.20163858924093 l 15.11812928268256 9.4488308016766 V 1696.4700787924503 l -15.11812928268256 9.4488308016766 V 1795.0078857242204 l 15.11812928268256 9.4488308016766 V 1923.7819512213557 M -222.99240691956777 2124.0971642168997 H 1780.1597230358714 M 1969.1363390694034 1923.7819512213557 V 1804.456716525897 l 15.11812928268256 -9.4488308016766 V 1705.9189095941267 l -15.11812928268256 -9.4488308016766 V 238.65046939091752 l 15.11812928268256 -9.4488308016766 V 140.1126624591473 l -15.11812928268256 -9.4488308016766 V 11.33859696201192 " fill="none" stroke="blue" /></g></svg>