<?xml version="1.0" encoding="utf-8" ?>
<svg baseProfile="tiny" height="0" version="1.2" width="0" xmlns="http://www.w3.org/2000/svg" xmlns:ev="http://www.w3.org/2001/xml-events" xmlns:xlink="http://www.w3.org/1999/xlink"><defs /><g id="hendit"><path d="M 10.629914563833346 -198.42507185822245 V 0.0 h 113.38575534755569 m 96.37789204542233 0.0 h 744.0940194683342 m 96.37789204542233 0.0 h 113.38575534755569 v -198.42507185822245 M 1184.881143381957 0.0 V 138.8975503007557 M 1184.881143381957 252.2833056483114 V 932.5978377336455 M 1184.881143381957 1045.9835930812012 V 1184.881143381957 M 1174.2512288181235 1383.3062152401794 V 1184.881143381957 h -113.38575534755569 m -96.37789204542233 0.0 h -744.0940194683342 m -96.37789204542233 0.0 h -113.38575534755569 V 1383.3062152401794 M 0.0 1184.881143381957 V 1045.9835930812012 M 0.0 932.5978377336455 V 252.2833056483114 M 0.0 138.8975503007557 V 0.0 M -211.18096933482246 0.0 V 1184.881143381957 m -25.511794953200027 -12.755897476600014 h -198.42507185822245 m 198.42507185822245 -185.66917438162244 V 198.42507185822245 M -236.6927642880225 12.755897476600014 h -198.42507185822245 M 1619.9989795282017 12.755897476600014 h -198.42507185822245 m -25.511794953200027 -12.755897476600014 V 1184.881143381957 m 25.511794953200027 -12.755897476600014 h 198.42507185822245 m -198.42507185822245 -185.66917438162244 V 198.42507185822245 " fill="none" stroke="red" /></g><g id="punxonat"><path d="M 1498.1092925295795 -58.110199615622285 a 28.34643883688892 28.34643883688892 0 1 1 .005 0 M 1115.1918526379527 -110.55111146386679 a 28.34643883688892 28.34643883688892 0 1 0 0 22.677151069511137 M 1060.8654734705678 0.0 h -96.37789204542233 v 25.511794953200027 h 96.37789204542233 z M 220.39356195681137 0.0 h -96.37789204542233 v 25.511794953200027 h 96.37789204542233 z M 69.68929074400423 -110.55111146386679 a 28.34643883688892 28.34643883688892 0 1 1 0 22.677151069511137 M -313.22814914762256 -58.110199615622285 a 28.34643883688892 28.34643883688892 0 1 1 .005 0 M 0.0 138.8975503007557 v 113.38575534755569 h 25.511794953200027 v -113.38575534755569 z M 0.0 932.5978377336455 v 113.38575534755569 h 25.511794953200027 v -113.38575534755569 z M -313.22814914762256 1242.991342997579 a 28.34643883688892 28.34643883688892 0 1 0 .005 0 M 69.68929074400423 1295.4322548458238 a 28.34643883688892 28.34643883688892 0 1 0 0 -22.677151069511137 M 124.01566991138903 1184.881143381957 h 96.37789204542233 v -25.511794953200027 h -96.37789204542233 z M 964.4875814251455 1184.881143381957 h 96.37789204542233 v -25.511794953200027 h -96.37789204542233 z M 1115.1918526379527 1295.4322548458238 a 28.34643883688892 28.34643883688892 0 1 1 0 -22.677151069511137 M 1498.1092925295795 1242.991342997579 a 28.34643883688892 28.34643883688892 0 1 0 .005 0 M 1184.881143381957 1045.9835930812012 v -113.38575534755569 h -25.511794953200027 v 113.38575534755569 z M 1184.881143381957 252.2833056483114 v -113.38575534755569 h -25.511794953200027 v 113.38575534755569 z " fill="none" stroke="purple" /></g><g id="tall"><path d="M 10.629914563833346 0.0 H -211.18096933482246 l -25.511794953200027 12.755897476600014 V -198.42507185822245 h -113.38575534755569 l -8.503931651066676 -12.755897476600014 H -460.62963109944496 V 12.755897476600014 H -435.11783614624494 l 198.42507185822245 185.66917438162244 M -236.6927642880225 986.4560715237344 l -198.42507185822245 185.66917438162244 H -460.62963109944496 V 1396.0621127167794 h 87.87396039435565 l 8.503931651066676 -12.755897476600014 h 113.38575534755569 V 1172.125245905357 l 25.511794953200027 12.755897476600014 H 10.629914563833346 M 1174.2512288181235 1184.881143381957 H 1396.0621127167794 l 25.511794953200027 -12.755897476600014 V 1383.3062152401794 h 113.38575534755569 l 8.503931651066676 12.755897476600014 H 1645.5107744814018 V 1172.125245905357 H 1619.9989795282017 l -198.42507185822245 -185.66917438162244 M 1421.5739076699795 198.42507185822245 l 198.42507185822245 -185.66917438162244 H 1645.5107744814018 V -211.18096933482246 h -87.87396039435565 l -8.503931651066676 12.755897476600014 H 1421.5739076699795 V 12.755897476600014 l -25.511794953200027 -12.755897476600014 H 1174.2512288181235 M 1421.5739076699795 -198.42507185822245 H -236.6927642880225 M -435.11783614624494 12.755897476600014 V 138.8975503007557 l -17.00786330213335 10.629914563833346 V 241.65339108447805 l 17.00786330213335 10.629914563833346 V 932.5978377336455 l -17.00786330213335 10.629914563833346 V 1035.3536785173678 l 17.00786330213335 10.629914563833346 V 1172.125245905357 M -236.6927642880225 1383.3062152401794 H 1421.5739076699795 M 1619.9989795282017 1172.125245905357 V 1045.9835930812012 l 17.00786330213335 -10.629914563833346 V 943.2277522974788 l -17.00786330213335 -10.629914563833346 V 252.2833056483114 l 17.00786330213335 -10.629914563833346 V 149.52746486458906 l -17.00786330213335 -10.629914563833346 V 12.755897476600014 " fill="none" stroke="blue" /></g></svg>