<?xml version="1.0" encoding="utf-8" ?>
<svg baseProfile="tiny" height="0" version="1.2" width="0" xmlns="http://www.w3.org/2000/svg" xmlns:ev="http://www.w3.org/2001/xml-events" xmlns:xlink="http://www.w3.org/1999/xlink"><defs /><g id="hendit"><path d="M 9.4488308016766 -377.953232067064 V 0.0 h 215.97327546689368 m 200.85514618421112 0.0 h 1082.5660432778047 m 200.85514618421112 0.0 h 215.97327546689368 v -377.953232067064 M 1935.1205481833676 0.0 V 238.65046939091752 M 1935.1205481833676 454.62374485781123 V 1480.4968033255566 M 1935.1205481833676 1696.4700787924503 V 1935.1205481833676 M 1925.671717381691 2313.073780250432 V 1935.1205481833676 h -215.97327546689368 m -200.85514618421112 0.0 h -1082.5660432778047 m -200.85514618421112 0.0 h -215.97327546689368 V 2313.073780250432 M 0.0 1935.1205481833676 V 1696.4700787924503 M 0.0 1480.4968033255566 V 454.62374485781123 M 0.0 238.65046939091752 V 0.0 M -389.2918290290759 0.0 V 1935.1205481833676 m -22.67719392402384 -11.33859696201192 h -377.953232067064 m 377.953232067064 -366.61463510505206 V 377.953232067064 M -411.96902295309974 11.33859696201192 h -377.953232067064 M 2725.0428032035315 11.33859696201192 h -377.953232067064 m -22.67719392402384 -11.33859696201192 V 1935.1205481833676 m 22.67719392402384 -11.33859696201192 h 377.953232067064 m -377.953232067064 -366.61463510505206 V 377.953232067064 " fill="none" stroke="red" /></g><g id="punxonat"><path d="M 2452.916476115245 -139.84269586481366 a 37.7953232067064 37.7953232067064 0 1 1 .005 0 M 1846.9257336635824 -204.09474531621456 a 37.7953232067064 37.7953232067064 0 1 0 0 30.23625856536512 M 1709.6984419147975 0.0 h -200.85514618421112 v 22.67719392402384 h 200.85514618421112 z M 426.27725245278145 0.0 h -200.85514618421112 v 22.67719392402384 h 200.85514618421112 z M 88.19481451978517 -204.09474531621456 a 37.7953232067064 37.7953232067064 0 1 1 0 30.23625856536512 M -517.7959279318777 -139.84269586481366 a 37.7953232067064 37.7953232067064 0 1 1 .005 0 M 0.0 238.65046939091752 v 215.97327546689368 h 22.67719392402384 v -215.97327546689368 z M 0.0 1480.4968033255566 v 215.97327546689368 h 22.67719392402384 v -215.97327546689368 z M -517.7959279318777 2074.9632440481814 a 37.7953232067064 37.7953232067064 0 1 0 .005 0 M 88.19481451978517 2139.215293499582 a 37.7953232067064 37.7953232067064 0 1 0 0 -30.23625856536512 M 225.4221062685703 1935.1205481833676 h 200.85514618421112 v -22.67719392402384 h -200.85514618421112 z M 1508.8432957305865 1935.1205481833676 h 200.85514618421112 v -22.67719392402384 h -200.85514618421112 z M 1846.9257336635824 2139.215293499582 a 37.7953232067064 37.7953232067064 0 1 1 0 -30.23625856536512 M 2452.916476115245 2074.9632440481814 a 37.7953232067064 37.7953232067064 0 1 0 .005 0 M 1935.1205481833676 1696.4700787924503 v -215.97327546689368 h -22.67719392402384 v 215.97327546689368 z M 1935.1205481833676 454.62374485781123 v -215.97327546689368 h -22.67719392402384 v 215.97327546689368 z " fill="none" stroke="purple" /></g><g id="tall"><path d="M 9.4488308016766 0.0 H -389.2918290290759 l -22.67719392402384 11.33859696201192 V -377.953232067064 h -215.97327546689368 l -7.55906464134128 -11.33859696201192 H -812.5994489441875 V 11.33859696201192 H -789.9222550201638 l 377.953232067064 366.61463510505206 M -411.96902295309974 1557.1673161163037 l -377.953232067064 366.61463510505206 H -812.5994489441875 V 2324.4123772124435 h 193.29608154286984 l 7.55906464134128 -11.33859696201192 h 215.97327546689368 V 1923.7819512213557 l 22.67719392402384 11.33859696201192 H 9.4488308016766 M 1925.671717381691 1935.1205481833676 H 2324.4123772124435 l 22.67719392402384 -11.33859696201192 V 2313.073780250432 h 215.97327546689368 l 7.55906464134128 11.33859696201192 H 2747.7199971275554 V 1923.7819512213557 H 2725.0428032035315 l -377.953232067064 -366.61463510505206 M 2347.0895711364674 377.953232067064 l 377.953232067064 -366.61463510505206 H 2747.7199971275554 V -389.2918290290759 h -193.29608154286984 l -7.55906464134128 11.33859696201192 H 2347.0895711364674 V 11.33859696201192 l -22.67719392402384 -11.33859696201192 H 1925.671717381691 M 2347.0895711364674 -377.953232067064 H -411.96902295309974 M -789.9222550201638 11.33859696201192 V 238.65046939091752 l -15.11812928268256 9.4488308016766 V 445.17491405613464 l 15.11812928268256 9.4488308016766 V 1480.4968033255566 l -15.11812928268256 9.4488308016766 V 1687.0212479907736 l 15.11812928268256 9.4488308016766 V 1923.7819512213557 M -411.96902295309974 2313.073780250432 H 2347.0895711364674 M 2725.0428032035315 1923.7819512213557 V 1696.4700787924503 l 15.11812928268256 -9.4488308016766 V 1489.9456341272332 l -15.11812928268256 -9.4488308016766 V 454.62374485781123 l 15.11812928268256 -9.4488308016766 V 248.09930019259414 l -15.11812928268256 -9.4488308016766 V 11.33859696201192 " fill="none" stroke="blue" /></g></svg>