<?xml version="1.0" encoding="utf-8" ?>
<svg baseProfile="tiny" height="0" version="1.2" width="0" xmlns="http://www.w3.org/2000/svg" xmlns:ev="http://www.w3.org/2001/xml-events" xmlns:xlink="http://www.w3.org/1999/xlink"><defs /><g id="hendit"><path d="M 9.4488308016766 -566.929848100596 V 0.0 h 323.95991320034057 m 308.841783917658 0.0 h 272.6662602769534 m 308.841783917658 0.0 h 323.95991320034057 v -566.929848100596 M 1557.1673161163037 0.0 V 346.6371071243644 M 1557.1673161163037 670.5970203247049 V 1264.5235278586626 M 1557.1673161163037 1588.483441059003 V 1935.1205481833676 M 1547.718485314627 2502.0503962839634 V 1935.1205481833676 h -323.95991320034057 m -308.841783917658 0.0 h -272.6662602769534 m -308.841783917658 0.0 h -323.95991320034057 V 2502.0503962839634 M 0.0 1935.1205481833676 V 1588.483441059003 M 0.0 1264.5235278586626 V 670.5970203247049 M 0.0 346.6371071243644 V 0.0 M -578.268445062608 0.0 V 1935.1205481833676 m -22.67719392402384 -11.33859696201192 h -566.929848100596 m 566.929848100596 -555.5912511385841 V 566.929848100596 M -600.9456389866317 11.33859696201192 h -566.929848100596 M 2725.0428032035315 11.33859696201192 h -566.929848100596 m -22.67719392402384 -11.33859696201192 V 1935.1205481833676 m 22.67719392402384 -11.33859696201192 h 566.929848100596 m -566.929848100596 -555.5912511385841 V 566.929848100596 " fill="none" stroke="red" /></g><g id="punxonat"><path d="M 2263.9398600817135 -234.33100388157968 a 37.7953232067064 37.7953232067064 0 1 1 .005 0 M 1468.9725015965184 -298.58305333298057 a 37.7953232067064 37.7953232067064 0 1 0 0 30.23625856536512 M 1223.7585721142864 0.0 h -308.841783917658 v 22.67719392402384 h 308.841783917658 z M 642.2505279196752 0.0 h -308.841783917658 v 22.67719392402384 h 308.841783917658 z M 88.19481451978517 -298.58305333298057 a 37.7953232067064 37.7953232067064 0 1 1 0 30.23625856536512 M -706.7725439654097 -234.33100388157968 a 37.7953232067064 37.7953232067064 0 1 1 .005 0 M 0.0 346.6371071243644 v 323.95991320034057 h 22.67719392402384 v -323.95991320034057 z M 0.0 1264.5235278586626 v 323.95991320034057 h 22.67719392402384 v -323.95991320034057 z M -706.7725439654097 2169.4515520649475 a 37.7953232067064 37.7953232067064 0 1 0 .005 0 M 88.19481451978517 2233.703601516348 a 37.7953232067064 37.7953232067064 0 1 0 0 -30.23625856536512 M 333.40874400201716 1935.1205481833676 h 308.841783917658 v -22.67719392402384 h -308.841783917658 z M 914.9167881966284 1935.1205481833676 h 308.841783917658 v -22.67719392402384 h -308.841783917658 z M 1468.9725015965184 2233.703601516348 a 37.7953232067064 37.7953232067064 0 1 1 0 -30.23625856536512 M 2263.9398600817135 2169.4515520649475 a 37.7953232067064 37.7953232067064 0 1 0 .005 0 M 1557.1673161163037 1588.483441059003 v -323.95991320034057 h -22.67719392402384 v 323.95991320034057 z M 1557.1673161163037 670.5970203247049 v -323.95991320034057 h -22.67719392402384 v 323.95991320034057 z " fill="none" stroke="purple" /></g><g id="tall"><path d="M 9.4488308016766 0.0 H -578.268445062608 l -22.67719392402384 11.33859696201192 V -566.929848100596 h -323.95991320034057 l -7.55906464134128 -11.33859696201192 H -1233.7473361046304 V 11.33859696201192 H -1211.0701421806066 l 566.929848100596 555.5912511385841 M -600.9456389866317 1368.1907000827716 l -566.929848100596 555.5912511385841 H -1233.7473361046304 V 2513.3889932459756 h 301.2827192763167 l 7.55906464134128 -11.33859696201192 h 323.95991320034057 V 1923.7819512213557 l 22.67719392402384 11.33859696201192 H 9.4488308016766 M 1547.718485314627 1935.1205481833676 H 2135.4357611789114 l 22.67719392402384 -11.33859696201192 V 2502.0503962839634 h 323.95991320034057 l 7.55906464134128 11.33859696201192 H 2747.7199971275554 V 1923.7819512213557 H 2725.0428032035315 l -566.929848100596 -555.5912511385841 M 2158.1129551029353 566.929848100596 l 566.929848100596 -555.5912511385841 H 2747.7199971275554 V -578.268445062608 h -301.2827192763167 l -7.55906464134128 11.33859696201192 H 2158.1129551029353 V 11.33859696201192 l -22.67719392402384 -11.33859696201192 H 1547.718485314627 M 2158.1129551029353 -566.929848100596 H -600.9456389866317 M -1211.0701421806066 11.33859696201192 V 346.6371071243644 l -15.11812928268256 9.4488308016766 V 661.1481895230283 l 15.11812928268256 9.4488308016766 V 1264.5235278586626 l -15.11812928268256 9.4488308016766 V 1579.0346102573267 l 15.11812928268256 9.4488308016766 V 1923.7819512213557 M -600.9456389866317 2502.0503962839634 H 2158.1129551029353 M 2725.0428032035315 1923.7819512213557 V 1588.483441059003 l 15.11812928268256 -9.4488308016766 V 1273.9723586603393 l -15.11812928268256 -9.4488308016766 V 670.5970203247049 l 15.11812928268256 -9.4488308016766 V 356.08593792604097 l -15.11812928268256 -9.4488308016766 V 11.33859696201192 " fill="none" stroke="blue" /></g></svg>