<?xml version="1.0" encoding="utf-8" ?>
<svg baseProfile="tiny" height="0" version="1.2" width="0" xmlns="http://www.w3.org/2000/svg" xmlns:ev="http://www.w3.org/2001/xml-events" xmlns:xlink="http://www.w3.org/1999/xlink"><defs /><g id="hendit"><path d="M 7.08660970922223 -198.42507185822245 V 0.0 h 113.38575534755569 m 102.04717981280011 0.0 h 394.015499832756 m 102.04717981280011 0.0 h 113.38575534755569 v -198.42507185822245 M 839.0545895719121 0.0 V 130.39361864968905 M 839.0545895719121 243.77937399724473 V 493.2280357618672 M 839.0545895719121 606.6137911094229 V 737.007409759112 M 831.9679798626898 935.4324816173344 V 737.007409759112 h -113.38575534755569 m -102.04717981280011 0.0 h -394.015499832756 m -102.04717981280011 0.0 h -113.38575534755569 V 935.4324816173344 M 0.0 737.007409759112 V 606.6137911094229 M 0.0 493.2280357618672 V 243.77937399724473 M 0.0 130.39361864968905 V 0.0 M -206.92900350928912 0.0 V 737.007409759112 m -17.00786330213335 -8.503931651066676 h -198.42507185822245 m 198.42507185822245 -189.92114020715576 V 198.42507185822245 M -223.93686681142248 8.503931651066676 h -198.42507185822245 M 1261.416528241557 8.503931651066676 h -198.42507185822245 m -17.00786330213335 -8.503931651066676 V 737.007409759112 m 17.00786330213335 -8.503931651066676 h 198.42507185822245 m -198.42507185822245 -189.92114020715576 V 198.42507185822245 " fill="none" stroke="red" /></g><g id="punxonat"><path d="M 1142.3614851266236 -62.362165441155625 a 28.34643883688892 28.34643883688892 0 1 1 .005 0 M 772.9086036825189 -110.55111146386679 a 28.34643883688892 28.34643883688892 0 1 0 0 22.677151069511137 M 718.5822245151342 0.0 h -102.04717981280011 v 17.00786330213335 h 102.04717981280011 z M 222.51954486957803 0.0 h -102.04717981280011 v 17.00786330213335 h 102.04717981280011 z M 66.1459858893931 -110.55111146386679 a 28.34643883688892 28.34643883688892 0 1 1 0 22.677151069511137 M -303.30689555471145 -62.362165441155625 a 28.34643883688892 28.34643883688892 0 1 1 .005 0 M 0.0 130.39361864968905 v 113.38575534755569 h 17.00786330213335 v -113.38575534755569 z M 0.0 493.2280357618672 v 113.38575534755569 h 17.00786330213335 v -113.38575534755569 z M -303.30689555471145 799.3695752002676 a 28.34643883688892 28.34643883688892 0 1 0 .005 0 M 66.1459858893931 847.5585212229787 a 28.34643883688892 28.34643883688892 0 1 0 0 -22.677151069511137 M 120.47236505677792 737.007409759112 h 102.04717981280011 v -17.00786330213335 h -102.04717981280011 z M 616.5350447023341 737.007409759112 h 102.04717981280011 v -17.00786330213335 h -102.04717981280011 z M 772.9086036825189 847.5585212229787 a 28.34643883688892 28.34643883688892 0 1 1 0 -22.677151069511137 M 1142.3614851266236 799.3695752002676 a 28.34643883688892 28.34643883688892 0 1 0 .005 0 M 839.0545895719121 606.6137911094229 v -113.38575534755569 h -17.00786330213335 v 113.38575534755569 z M 839.0545895719121 243.77937399724473 v -113.38575534755569 h -17.00786330213335 v 113.38575534755569 z " fill="none" stroke="purple" /></g><g id="tall"><path d="M 7.08660970922223 0.0 H -206.92900350928912 l -17.00786330213335 8.503931651066676 V -198.42507185822245 h -113.38575534755569 l -5.669287767377784 -8.503931651066676 H -439.36980197177826 V 8.503931651066676 H -422.3619386696449 l 198.42507185822245 189.92114020715576 M -223.93686681142248 538.5823379008895 l -198.42507185822245 189.92114020715576 H -439.36980197177826 V 943.9364132684011 h 96.37789204542233 l 5.669287767377784 -8.503931651066676 h 113.38575534755569 V 728.5034781080452 l 17.00786330213335 8.503931651066676 H 7.08660970922223 M 831.9679798626898 737.007409759112 H 1045.9835930812012 l 17.00786330213335 -8.503931651066676 V 935.4324816173344 h 113.38575534755569 l 5.669287767377784 8.503931651066676 H 1278.4243915436903 V 728.5034781080452 H 1261.416528241557 l -198.42507185822245 -189.92114020715576 M 1062.9914563833345 198.42507185822245 l 198.42507185822245 -189.92114020715576 H 1278.4243915436903 V -206.92900350928912 h -96.37789204542233 l -5.669287767377784 8.503931651066676 H 1062.9914563833345 V 8.503931651066676 l -17.00786330213335 -8.503931651066676 H 831.9679798626898 M 1062.9914563833345 -198.42507185822245 H -223.93686681142248 M -422.3619386696449 8.503931651066676 V 130.39361864968905 l -11.338575534755568 7.08660970922223 V 236.6927642880225 l 11.338575534755568 7.08660970922223 V 493.2280357618672 l -11.338575534755568 7.08660970922223 V 599.5271814002007 l 11.338575534755568 7.08660970922223 V 728.5034781080452 M -223.93686681142248 935.4324816173344 H 1062.9914563833345 M 1261.416528241557 728.5034781080452 V 606.6137911094229 l 11.338575534755568 -7.08660970922223 V 500.3146454710895 l -11.338575534755568 -7.08660970922223 V 243.77937399724473 l 11.338575534755568 -7.08660970922223 V 137.48022835891126 l -11.338575534755568 -7.08660970922223 V 8.503931651066676 " fill="none" stroke="blue" /></g></svg>