<?xml version="1.0" encoding="utf-8" ?>
<svg baseProfile="tiny" height="0" version="1.2" width="0" xmlns="http://www.w3.org/2000/svg" xmlns:ev="http://www.w3.org/2001/xml-events" xmlns:xlink="http://www.w3.org/1999/xlink"><defs /><g id="tall_baldes"><path d="M 0.0 0.0 m 1016.6941942604021 22.67719392402384 v -22.67719392402384 h 37.7953232067064 v 22.67719392402384 h 188.976616033532 a 56.6929848100596 56.6929848100596 0 0 1 56.6929848100596 56.6929848100596 v 56.6929848100596 h 22.67719392402384 l 22.67719392402384 37.7953232067064 a 11.33859696201192 11.33859696201192 0 0 1 -22.67719392402384 0.0 h -22.67719392402384 v 1938.9000805040382 h 22.67719392402384 a 11.33859696201192 11.33859696201192 0 0 1 22.67719392402384 0.0 l -22.67719392402384 37.7953232067064 h -22.67719392402384 v 56.6929848100596 a 56.6929848100596 56.6929848100596 0 0 1 -56.6929848100596 56.6929848100596 h -188.976616033532 v 22.67719392402384 h -37.7953232067064 v -22.67719392402384 h -710.5520762860804 v 22.67719392402384 h -37.7953232067064 v -22.67719392402384 h -188.976616033532 a 56.6929848100596 56.6929848100596 0 0 1 -56.6929848100596 -56.6929848100596 v -56.6929848100596 h -22.67719392402384 v -37.7953232067064 h 22.67719392402384 v -132.2836312234724 h -22.67719392402384 v -37.7953232067064 h 22.67719392402384 v -34.01579088603576 a 2152.263585588016 2152.263585588016 0 0 1 960.0012094503426 -1885.9866280146493 z" fill="none" stroke="blue" /></g></svg>