<?xml version="1.0" encoding="utf-8" ?>
<svg baseProfile="tiny" height="0" version="1.2" width="0" xmlns="http://www.w3.org/2000/svg" xmlns:ev="http://www.w3.org/2001/xml-events" xmlns:xlink="http://www.w3.org/1999/xlink"><defs /><g id="hendit"><path d="M 0.0 0.0 h -850.3931651066677 v 1133.8575534755569 h 850.3931651066677 v -1133.8575534755569 m 0.0 -17.00786330213335 h 198.42507185822245 m 0.0 1167.8732800798236 h -198.42507185822245 m -858.8970967577343 -11.338575534755568 h -181.4172085560891 m -8.503931651066676 17.00786330213335 h -850.3931651066677 m 0.0 198.42507185822245 h 850.3931651066677 m 0.0 22.677151069511137 h -850.3931651066677 m -8.503931651066676 -238.11008622986694 h -181.4172085560891 m 189.92114020715576 17.00786330213335 v -1179.211855614579 m -189.92114020715576 17.00786330213335 h 181.4172085560891 m 8.503931651066676 -17.00786330213335 h 850.3931651066677 m 0.0 -198.42507185822245 h -850.3931651066677 m 0.0 -22.677151069511137 h 850.3931651066677 m 189.92114020715576 238.11008622986694 h -181.4172085560891 m -8.503931651066676 -17.00786330213335 v 1179.211855614579 " fill="none" stroke="red" /></g><g id="tall"><path d="M 0.0 0.0 l -49.60626796455561 -138.8975503007557 q -19.842507185822246 -53.85823379008895 -79.37002874328898 -53.85823379008895 h -592.4405716909785 q -59.527521557466734 0.0 -79.37002874328898 53.85823379008895 L -850.3931651066677 0.0 v -5.669287767377784 h -8.503931651066676 v -99.21253592911123 h -181.4172085560891 v 99.21253592911123 h -8.503931651066676 v -436.53515808808936 h -325.9840466242226 v -5.669287767377784 h -198.42507185822245 v 5.669287767377784 h -325.9840466242226 v 436.53515808808936 h -8.503931651066676 v -99.21253592911123 h -181.4172085560891 v 99.21253592911123 h -8.503931651066676 v 1145.1961290103125 h 8.503931651066676 v 99.21253592911123 h 181.4172085560891 v -99.21253592911123 h 8.503931651066676 v 436.53515808808936 h 325.9840466242226 v 5.669287767377784 h 198.42507185822245 v -5.669287767377784 h 325.9840466242226 v -436.53515808808936 h 8.503931651066676 v 99.21253592911123 h 181.4172085560891 v -99.21253592911123 h 8.503931651066676 v -5.669287767377784 l 49.60626796455561 138.8975503007557 q 19.842507185822246 65.19680932484452 79.37002874328898 65.19680932484452 h 592.4405716909785 q 59.527521557466734 0.0 79.37002874328898 -53.85823379008895 L 0.0 1133.8575534755569 v 17.00786330213335 c 1.9842507185822247 1.9842507185822247 24.789962526007855 34.08275272267545 34.58696233892136 83.53733225994819 3.173094694113578 15.92874725748204 5.2356439460510575 33.40666651548566 9.162357063082165 48.97790735249931 3.926713117031107 15.650690235785678 9.757314798541858 29.354965445691057 20.42690870745908 37.77614930636265 7.139532510530701 5.640609675206504 16.420904931713427 8.937573204678296 28.796041703280814 8.937573204678296 36.92710429788705 0.0 62.15335990339534 -24.191028352108127 78.81221618128114 -58.709934859883546 16.61917126351416 -34.479173871386536 27.050813826259006 -77.85620418506824 27.050813826259006 -120.24016816808303 v -532.9130501335117 a 51.023589906400055 51.023589906400055 0 0 1 0.0 -102.04717981280011 L 198.42507185822245 -17.00786330213335 c 0.0 -42.38390490433077 -10.431646286627851 -85.76100293175877 -27.050815380284483 -120.24010277432265 -16.658859018651956 -34.51889476736078 -41.88511384692923 -58.710009051811625 -78.81221056335146 -58.710009051811625 -12.375140113878983 0.0 -21.656513574253495 3.296993769452743 -28.796048582201834 8.937583110057883 -10.669586336976794 8.421194085912386 -16.500193818492082 22.125453188067283 -20.42690289793014 37.776198611818195 -3.9267195794182177 15.571260573958694 -5.989262181695003 33.04910754491493 -9.162356185289331 48.97789244323626 -9.797006485948671 49.454591542386424 -32.60271138849928 81.55303088384197 -34.5869661387218 83.53731713400495 zM-1371.9676397054238 -4.251965825533338 h -204.09435962560022 v 8.503931651066676 h 204.09435962560022 zm 0.0 1133.8575534755569 h -204.09435962560022 v 8.503931651066676 h 204.09435962560022 z" fill="none" stroke="blue" /></g></svg>