<?xml version="1.0" encoding="utf-8" ?>
<svg baseProfile="tiny" height="0" version="1.2" width="0" xmlns="http://www.w3.org/2000/svg" xmlns:ev="http://www.w3.org/2001/xml-events" xmlns:xlink="http://www.w3.org/1999/xlink"><defs /><g id="hendit"><path d="M 1.8564356435643563 -51.98019801980198 V 0.0 h 29.7029702970297 m 26.73267326732673 0.0 h 103.21782178217822 m 26.73267326732673 0.0 h 29.7029702970297 v -51.98019801980198 M 219.8019801980198 0.0 V 34.15841584158416 M 219.8019801980198 63.86138613861386 V 129.2079207920792 M 219.8019801980198 158.9108910891089 V 193.06930693069307 M 217.94554455445544 245.04950495049505 V 193.06930693069307 h -29.7029702970297 m -26.73267326732673 0.0 h -103.21782178217822 m -26.73267326732673 0.0 h -29.7029702970297 V 245.04950495049505 M 0.0 193.06930693069307 V 158.9108910891089 M 0.0 129.2079207920792 V 63.86138613861386 M 0.0 34.15841584158416 V 0.0 M -54.20792079207921 0.0 V 193.06930693069307 m -4.455445544554456 -2.227722772277228 h -51.98019801980198 m 51.98019801980198 -49.75247524752475 V 51.98019801980198 M -58.663366336633665 2.227722772277228 h -51.98019801980198 M 330.44554455445547 2.227722772277228 h -51.98019801980198 m -4.455445544554456 -2.227722772277228 V 193.06930693069307 m 4.455445544554456 -2.227722772277228 h 51.98019801980198 m -51.98019801980198 -49.75247524752475 V 51.98019801980198 " fill="none" stroke="red" /></g><g id="punxonat"><path d="M 299.25742574257424 -16.336633663366335 a 7.425742574257425 7.425742574257425 0 1 1 .005 0 M 202.47412231924133 -28.96039603960396 a 7.425742574257425 7.425742574257425 0 1 0 0 5.9405940594059405 M 188.24257425742573 0.0 h -26.73267326732673 v 4.455445544554456 h 26.73267326732673 z M 58.29207920792079 0.0 h -26.73267326732673 v 4.455445544554456 h 26.73267326732673 z M 17.327857878778456 -28.96039603960396 a 7.425742574257425 7.425742574257425 0 1 1 0 5.9405940594059405 M -79.45544554455445 -16.336633663366335 a 7.425742574257425 7.425742574257425 0 1 1 .005 0 M 0.0 34.15841584158416 v 29.7029702970297 h 4.455445544554456 v -29.7029702970297 z M 0.0 129.2079207920792 v 29.7029702970297 h 4.455445544554456 v -29.7029702970297 z M -79.45544554455445 209.40594059405942 a 7.425742574257425 7.425742574257425 0 1 0 .005 0 M 17.327857878778456 222.02970297029702 a 7.425742574257425 7.425742574257425 0 1 0 0 -5.9405940594059405 M 31.559405940594058 193.06930693069307 h 26.73267326732673 v -4.455445544554456 h -26.73267326732673 z M 161.509900990099 193.06930693069307 h 26.73267326732673 v -4.455445544554456 h -26.73267326732673 z M 202.47412231924133 222.02970297029702 a 7.425742574257425 7.425742574257425 0 1 1 0 -5.9405940594059405 M 299.25742574257424 209.40594059405942 a 7.425742574257425 7.425742574257425 0 1 0 .005 0 M 219.8019801980198 158.9108910891089 v -29.7029702970297 h -4.455445544554456 v 29.7029702970297 z M 219.8019801980198 63.86138613861386 v -29.7029702970297 h -4.455445544554456 v 29.7029702970297 z " fill="none" stroke="purple" /></g><g id="tall"><path d="M 1.8564356435643563 0.0 H -54.20792079207921 l -4.455445544554456 2.227722772277228 V -51.98019801980198 h -29.7029702970297 l -1.4851485148514851 -2.227722772277228 H -115.0990099009901 V 2.227722772277228 H -110.64356435643565 l 51.98019801980198 49.75247524752475 M -58.663366336633665 141.0891089108911 l -51.98019801980198 49.75247524752475 H -115.0990099009901 V 247.27722772277227 h 25.247524752475247 l 1.4851485148514851 -2.227722772277228 h 29.7029702970297 V 190.84158415841583 l 4.455445544554456 2.227722772277228 H 1.8564356435643563 M 217.94554455445544 193.06930693069307 H 274.009900990099 l 4.455445544554456 -2.227722772277228 V 245.04950495049505 h 29.7029702970297 l 1.4851485148514851 2.227722772277228 H 334.9009900990099 V 190.84158415841583 H 330.44554455445547 l -51.98019801980198 -49.75247524752475 M 278.46534653465346 51.98019801980198 l 51.98019801980198 -49.75247524752475 H 334.9009900990099 V -54.20792079207921 h -25.247524752475247 l -1.4851485148514851 2.227722772277228 H 278.46534653465346 V 2.227722772277228 l -4.455445544554456 -2.227722772277228 H 217.94554455445544 M 278.46534653465346 -51.98019801980198 H -58.663366336633665 M -110.64356435643565 2.227722772277228 V 34.15841584158416 l -2.9702970297029703 1.8564356435643563 V 62.004950495049506 l 2.9702970297029703 1.8564356435643563 V 129.2079207920792 l -2.9702970297029703 1.8564356435643563 V 157.05445544554456 l 2.9702970297029703 1.8564356435643563 V 190.84158415841583 M -58.663366336633665 245.04950495049505 H 278.46534653465346 M 330.44554455445547 190.84158415841583 V 158.9108910891089 l 2.9702970297029703 -1.8564356435643563 V 131.06435643564356 l -2.9702970297029703 -1.8564356435643563 V 63.86138613861386 l 2.9702970297029703 -1.8564356435643563 V 36.01485148514851 l -2.9702970297029703 -1.8564356435643563 V 2.227722772277228 " fill="none" stroke="blue" /></g></svg>